<?xml version="1.0" encoding="utf-8"?>
<!-- Generator: Adobe Illustrator 27.5.0, SVG Export Plug-In . SVG Version: 6.00 Build 0)  -->
<svg version="1.1" xmlns="http://www.w3.org/2000/svg" xmlns:xlink="http://www.w3.org/1999/xlink" x="0px" y="0px"
	 viewBox="0 0 500 500" style="enable-background:new 0 0 500 500;" xml:space="preserve">
<g id="BACKGROUND">
	<rect y="333.764" style="fill:#E8F2EF;" width="500" height="166.236"/>
</g>
<g id="OBJECTS">
	<path style="fill:#D1DEDA;" d="M336.388,389.097H163.611c-5.155,0-9.372-4.217-9.372-9.372l0,0c0-5.155,4.217-9.372,9.372-9.372
		h172.777c5.155,0,9.372,4.217,9.372,9.372l0,0C345.761,384.88,341.543,389.097,336.388,389.097z"/>
	<g>
		<g>
			<path style="fill:#77A2BA;" d="M348.441,230.878c3.155-6.003,7.909-10.757,13.836-13.863c1.19-0.624,1.677-2.077,1.138-3.307
				l-2.593-5.922c-0.602-1.374-2.238-1.939-3.571-1.253c-8.113,4.179-14.832,10.821-19.098,18.938
				c-0.087,0.165-0.173,0.332-0.258,0.499c-0.676,1.327-0.092,2.951,1.274,3.545l5.928,2.58c1.252,0.545,2.698,0.014,3.332-1.195
				C348.434,230.892,348.438,230.885,348.441,230.878z"/>
			<path style="fill:#77A2BA;" d="M412.607,239.646l6.357-1.207c1.448-0.275,2.394-1.709,2.033-3.139
				c-2.312-9.161-7.418-17.291-14.643-23.319c-1.132-0.945-2.835-0.713-3.71,0.474l-3.838,5.21c-0.8,1.086-0.633,2.608,0.392,3.484
				c5.089,4.348,8.716,10.128,10.437,16.634C409.98,239.088,411.281,239.897,412.607,239.646z"/>
			<path style="fill:#77A2BA;" d="M343.349,237.107l-6.252-1.671c-1.425-0.381-2.899,0.502-3.193,1.947
				c-1.876,9.22-0.787,18.757,3.125,27.356c0.611,1.342,2.244,1.872,3.547,1.183l5.72-3.026c1.193-0.631,1.704-2.076,1.159-3.311
				c-2.717-6.157-3.494-12.938-2.236-19.513C345.473,238.748,344.652,237.456,343.349,237.107z"/>
			<path style="fill:#77A2BA;" d="M393.022,216.976l0.135,0.072l5.406-10.288l-0.093-0.049c-9.204-4.837-19.686-6.3-29.795-4.209
				c-1.444,0.299-2.322,1.776-1.937,3.199l1.689,6.247c0.352,1.302,1.648,2.119,2.972,1.861
				C378.76,212.374,386.365,213.478,393.022,216.976z"/>
			<path style="fill:#77A2BA;" d="M419.669,244.675l-6.465,0.248c-1.343,0.052-2.433,1.124-2.479,2.468
				c-0.171,4.939-1.461,9.815-3.782,14.231c-0.794,1.512-1.703,2.96-2.712,4.325c-0.8,1.082-0.616,2.6,0.405,3.477l4.909,4.214
				c1.138,0.977,2.857,0.777,3.76-0.419c1.471-1.947,2.786-4.021,3.926-6.191c3.203-6.095,4.953-12.846,5.121-19.68
				C422.389,245.846,421.169,244.618,419.669,244.675z"/>
			<path style="fill:#77A2BA;" d="M376.387,281.766l-0.232,6.467c-0.053,1.473,1.136,2.713,2.61,2.678
				c9.427-0.225,18.485-3.4,25.98-9.107c1.173-0.893,1.327-2.604,0.365-3.722l-4.222-4.904c-0.88-1.022-2.402-1.2-3.484-0.395
				c-5.384,4.002-11.828,6.26-18.542,6.497C377.514,279.328,376.436,280.418,376.387,281.766z"/>
			<path style="fill:#77A2BA;" d="M362.321,275.5c-3.751-1.971-7.011-4.565-9.718-7.729c-0.876-1.023-2.398-1.184-3.482-0.384
				l-5.204,3.844c-1.205,0.89-1.395,2.609-0.432,3.757c3.721,4.44,8.228,8.066,13.43,10.799c3.121,1.64,6.404,2.901,9.79,3.764
				c1.457,0.371,2.928-0.541,3.207-2.018l1.201-6.358c0.249-1.32-0.552-2.623-1.851-2.967
				C366.866,277.573,364.54,276.666,362.321,275.5z"/>
		</g>
		<path style="fill:#A7CBDE;" d="M395.767,211.854c-18.996-9.982-42.487-2.676-52.47,16.32s-2.676,42.487,16.32,52.47
			c18.996,9.982,42.487,2.676,52.47-16.32C422.07,245.328,414.763,221.837,395.767,211.854z M368.143,264.42
			c-10.035-5.274-13.896-17.684-8.622-27.72c5.274-10.035,17.684-13.896,27.72-8.622s13.896,17.684,8.622,27.72
			C390.589,265.834,378.179,269.694,368.143,264.42z"/>
		<path style="fill:#77A2BA;" d="M391.334,220.291c-14.336-7.534-32.066-2.019-39.6,12.317c-7.534,14.337-2.019,32.066,12.317,39.6
			c14.337,7.534,32.066,2.019,39.6-12.317C411.185,245.554,405.67,227.825,391.334,220.291z M368.143,264.42
			c-10.035-5.274-13.896-17.684-8.622-27.72c5.274-10.036,17.684-13.896,27.72-8.622c10.035,5.274,13.896,17.684,8.622,27.72
			C390.589,265.834,378.179,269.694,368.143,264.42z"/>
		<path style="opacity:0.15;" d="M387.667,264.179c-5.848,3.246-13.161,3.585-19.524,0.241c-1.254-0.659-2.412-1.43-3.468-2.294
			c-1.056-0.864-2.009-1.82-2.854-2.851c-1.268-1.546-2.293-3.26-3.055-5.079c-1.271-3.031-1.812-6.352-1.533-9.673
			c0.112-1.329,0.354-2.657,0.734-3.967c0.38-1.31,0.896-2.602,1.555-3.856c1.648-3.136,3.993-5.669,6.745-7.509
			c1.101-0.736,2.266-1.361,3.479-1.869c1.212-0.508,2.471-0.9,3.758-1.169c0.721-0.151,1.453-0.253,2.188-0.326
			c3.857-0.382,7.863,0.313,11.551,2.251c1.076,0.566,2.066,1.228,2.996,1.946l1.958-26.015c-7.547-2.599-15.645-3.137-23.52-1.508
			c-1.444,0.299-2.322,1.776-1.937,3.199l0.824,3.045c-1.87,0.506-3.699,1.152-5.475,1.929l-1.265-2.889
			c-0.602-1.374-2.238-1.939-3.571-1.253c-8.113,4.179-14.832,10.821-19.098,18.938c-0.087,0.165-0.173,0.332-0.258,0.499
			c-0.676,1.327-0.092,2.951,1.274,3.545l2.894,1.26c-0.784,1.799-1.421,3.629-1.915,5.478l-3.051-0.816
			c-1.425-0.381-2.899,0.502-3.193,1.947c-1.876,9.22-0.787,18.757,3.125,27.356c0.611,1.342,2.244,1.872,3.547,1.183l2.787-1.474
			c0.902,1.705,1.93,3.35,3.086,4.914l-2.532,1.871c-1.205,0.89-1.395,2.609-0.432,3.757c3.721,4.44,8.228,8.065,13.43,10.799
			c3.121,1.64,6.404,2.902,9.79,3.764c1.457,0.371,2.928-0.541,3.207-2.018l0.584-3.095c1.919,0.362,3.848,0.578,5.772,0.647
			l-0.113,3.147c-0.053,1.473,1.136,2.713,2.61,2.678c2.344-0.056,4.664-0.295,6.943-0.709L387.667,264.179z"/>
	</g>
	<g>
		<g>
			<path style="fill:#719AB0;" d="M222.366,120.05c2.068-6.134,5.833-11.333,10.951-15.154c1.028-0.768,1.268-2.211,0.574-3.289
				l-3.338-5.191c-0.774-1.204-2.402-1.491-3.555-0.642c-7.018,5.163-12.349,12.437-15.146,20.732
				c-0.057,0.169-0.113,0.339-0.168,0.509c-0.437,1.352,0.358,2.795,1.735,3.149l5.978,1.538c1.262,0.325,2.545-0.394,2.961-1.629
				C222.361,120.065,222.364,120.058,222.366,120.05z"/>
			<path style="fill:#719AB0;" d="M284.174,118.638l5.811-2.097c1.324-0.478,1.999-1.972,1.443-3.265
				c-3.562-8.287-9.6-15.181-17.32-19.773c-1.21-0.72-2.78-0.244-3.426,1.007l-2.832,5.49c-0.59,1.144-0.204,2.554,0.895,3.225
				c5.453,3.331,9.744,8.233,12.347,14.106C281.613,118.508,282.962,119.075,284.174,118.638z"/>
			<path style="fill:#719AB0;" d="M218.506,126.691l-6.145-0.632c-1.4-0.144-2.657,0.91-2.717,2.317
				c-0.378,8.974,2.087,17.8,7.072,25.315c0.778,1.173,2.398,1.426,3.522,0.58l4.935-3.715c1.029-0.775,1.293-2.214,0.594-3.295
				c-3.49-5.394-5.245-11.669-5.051-18.057C220.755,127.917,219.786,126.823,218.506,126.691z"/>
			<path style="fill:#719AB0;" d="M262.294,100.223l0.138,0.047l3.545-10.513l-0.095-0.032c-9.405-3.171-19.507-2.97-28.721,0.526
				c-1.316,0.499-1.921,2.024-1.344,3.308l2.535,5.634c0.528,1.174,1.873,1.749,3.082,1.306
				C248.155,98.035,255.49,97.929,262.294,100.223z"/>
			<path style="fill:#719AB0;" d="M291.589,122.314l-6.057,1.209c-1.259,0.251-2.124,1.427-1.965,2.7
				c0.584,4.682,0.103,9.473-1.418,13.985c-0.521,1.546-1.159,3.047-1.904,4.486c-0.591,1.141-0.189,2.544,0.906,3.217l5.263,3.232
				c1.22,0.749,2.81,0.302,3.481-0.962c1.093-2.057,2.02-4.21,2.767-6.428c2.1-6.228,2.732-12.856,1.859-19.323
				C294.33,123.008,292.995,122.034,291.589,122.314z"/>
			<path style="fill:#719AB0;" d="M256.384,163.805l0.756,6.131c0.172,1.397,1.48,2.386,2.864,2.131
				c8.852-1.634,16.912-5.993,23.116-12.503c0.971-1.019,0.858-2.655-0.217-3.563l-4.719-3.986
				c-0.984-0.831-2.445-0.769-3.344,0.153c-4.472,4.585-10.206,7.685-16.499,8.921C257.078,161.337,256.227,162.527,256.384,163.805
				z"/>
			<path style="fill:#719AB0;" d="M242.18,160.02c-3.833-1.292-7.297-3.246-10.326-5.82c-0.98-0.833-2.439-0.754-3.34,0.163
				l-4.326,4.409c-1.002,1.021-0.921,2.669,0.159,3.607c4.177,3.624,8.972,6.362,14.288,8.155c3.19,1.075,6.474,1.769,9.796,2.071
				c1.429,0.13,2.679-0.952,2.719-2.386l0.173-6.174c0.036-1.282-0.916-2.389-2.192-2.518
				C246.777,161.289,244.447,160.785,242.18,160.02z"/>
		</g>
		<path style="fill:#92BFD6;" d="M264.109,94.98c-19.412-6.545-40.454,3.886-46.999,23.298
			c-6.545,19.412,3.886,40.454,23.298,46.999c19.412,6.545,40.454-3.886,46.999-23.298
			C293.951,122.567,283.52,101.525,264.109,94.98z M245.997,148.698c-10.255-3.458-15.766-14.574-12.308-24.83
			c3.458-10.255,14.574-15.766,24.83-12.308c10.255,3.458,15.766,14.574,12.308,24.83S256.253,152.155,245.997,148.698z"/>
		<path style="fill:#719AB0;" d="M261.202,103.602c-14.65-4.94-30.531,2.933-35.471,17.583c-4.94,14.65,2.933,30.531,17.583,35.471
			c14.65,4.94,30.531-2.933,35.471-17.583S275.852,108.541,261.202,103.602z M245.997,148.698
			c-10.255-3.458-15.766-14.574-12.308-24.83c3.458-10.255,14.574-15.766,24.83-12.308c10.255,3.458,15.766,14.574,12.308,24.83
			S256.253,152.155,245.997,148.698z"/>
		<path style="opacity:0.15;" d="M271.332,134.595c-0.141,0.6-0.305,1.199-0.506,1.794c-0.432,1.282-0.984,2.49-1.639,3.615
			c-0.655,1.125-1.413,2.168-2.257,3.121c-1.267,1.428-2.727,2.653-4.326,3.646c-2.665,1.655-5.714,2.666-8.887,2.904
			c-1.269,0.095-2.558,0.067-3.85-0.093c-1.292-0.16-2.588-0.452-3.869-0.885c-5.547-1.87-9.688-5.99-11.79-10.994l-23.519,1.969
			c1.14,4.957,3.166,9.704,6.027,14.018c0.778,1.173,2.398,1.426,3.522,0.58l2.405-1.81c1.108,1.471,2.325,2.866,3.65,4.167
			l-2.105,2.145c-1.002,1.021-0.921,2.67,0.159,3.607c4.177,3.624,8.972,6.362,14.288,8.154c3.19,1.076,6.474,1.769,9.796,2.071
			c1.429,0.13,2.679-0.952,2.719-2.386l0.084-3.006c1.863,0.052,3.714-0.035,5.539-0.26l0.368,2.983
			c0.172,1.397,1.48,2.386,2.864,2.131c8.852-1.634,16.912-5.993,23.116-12.503c0.971-1.019,0.858-2.655-0.217-3.563l-2.304-1.946
			c1.184-1.401,2.269-2.899,3.246-4.49l2.568,1.577c1.22,0.749,2.81,0.302,3.481-0.962c1.093-2.057,2.02-4.21,2.767-6.428
			c1.217-3.609,1.925-7.353,2.148-11.122L271.332,134.595z"/>
	</g>
	<g>
		<g>
			<path style="fill:#B7C8D1;" d="M433.351,192.957c1.578-4.679,4.449-8.644,8.353-11.559c0.784-0.585,0.967-1.686,0.438-2.509
				l-2.546-3.959c-0.591-0.918-1.832-1.137-2.712-0.49c-5.353,3.938-9.419,9.487-11.553,15.814
				c-0.043,0.129-0.086,0.258-0.128,0.388c-0.334,1.032,0.273,2.132,1.323,2.402l4.56,1.173c0.963,0.248,1.942-0.3,2.259-1.243
				C433.347,192.969,433.349,192.963,433.351,192.957z"/>
			<path style="fill:#B7C8D1;" d="M480.495,191.88l4.432-1.599c1.01-0.364,1.524-1.504,1.1-2.491
				c-2.716-6.321-7.323-11.579-13.211-15.082c-0.923-0.549-2.12-0.186-2.613,0.768l-2.16,4.188c-0.45,0.873-0.155,1.948,0.683,2.46
				c4.159,2.541,7.432,6.28,9.418,10.759C478.542,191.781,479.571,192.214,480.495,191.88z"/>
			<path style="fill:#B7C8D1;" d="M430.406,198.022l-4.687-0.482c-1.068-0.11-2.027,0.694-2.072,1.767
				c-0.288,6.845,1.592,13.577,5.394,19.309c0.593,0.895,1.829,1.088,2.687,0.442l3.764-2.833c0.785-0.591,0.986-1.689,0.453-2.514
				c-2.662-4.114-4.001-8.9-3.853-13.773C432.122,198.958,431.383,198.123,430.406,198.022z"/>
			<path style="fill:#B7C8D1;" d="M463.806,177.833l0.105,0.036l2.704-8.019l-0.073-0.025c-7.174-2.419-14.879-2.265-21.907,0.401
				c-1.004,0.381-1.465,1.544-1.025,2.523l1.933,4.297c0.403,0.896,1.429,1.334,2.351,0.996
				C453.022,176.165,458.616,176.084,463.806,177.833z"/>
			<path style="fill:#B7C8D1;" d="M486.151,194.684l-4.62,0.922c-0.96,0.192-1.62,1.088-1.499,2.06
				c0.446,3.571,0.079,7.225-1.082,10.667c-0.397,1.179-0.884,2.324-1.453,3.422c-0.451,0.87-0.144,1.941,0.691,2.453l4.014,2.465
				c0.93,0.571,2.143,0.23,2.655-0.734c0.833-1.569,1.541-3.212,2.111-4.903c1.602-4.751,2.084-9.806,1.418-14.739
				C488.242,195.213,487.223,194.47,486.151,194.684z"/>
			<path style="fill:#B7C8D1;" d="M459.298,226.331l0.577,4.676c0.131,1.066,1.129,1.82,2.185,1.625
				c6.752-1.247,12.899-4.571,17.632-9.537c0.741-0.777,0.655-2.025-0.166-2.718l-3.6-3.04c-0.75-0.634-1.865-0.586-2.551,0.117
				c-3.411,3.497-7.785,5.862-12.584,6.805C459.828,224.449,459.178,225.356,459.298,226.331z"/>
			<path style="fill:#B7C8D1;" d="M448.464,223.445c-2.924-0.986-5.566-2.476-7.876-4.439c-0.747-0.635-1.861-0.575-2.547,0.125
				l-3.3,3.363c-0.764,0.779-0.703,2.036,0.121,2.751c3.186,2.764,6.844,4.853,10.898,6.22c2.433,0.82,4.938,1.35,7.472,1.58
				c1.09,0.099,2.043-0.726,2.074-1.82l0.132-4.71c0.027-0.978-0.699-1.822-1.672-1.92
				C451.97,224.412,450.193,224.028,448.464,223.445z"/>
		</g>
		<path style="fill:#E4F0F7;" d="M465.19,173.835c-14.807-4.992-30.856,2.964-35.849,17.77c-4.992,14.807,2.964,30.857,17.77,35.849
			c14.806,4.992,30.856-2.964,35.849-17.77C487.952,194.877,479.996,178.827,465.19,173.835z M451.375,214.808
			c-7.822-2.637-12.025-11.117-9.388-18.939c2.637-7.822,11.117-12.025,18.939-9.388c7.822,2.637,12.025,11.117,9.388,18.939
			C467.677,213.242,459.198,217.445,451.375,214.808z"/>
		<path style="fill:#B7C8D1;" d="M462.973,180.411c-11.175-3.768-23.288,2.237-27.056,13.412s2.237,23.288,13.412,27.055
			c11.175,3.768,23.288-2.237,27.056-13.411C480.152,196.292,474.147,184.179,462.973,180.411z M451.375,214.808
			c-7.822-2.637-12.025-11.117-9.388-18.939c2.637-7.822,11.117-12.025,18.939-9.388c7.822,2.637,12.026,11.117,9.388,18.939
			C467.677,213.242,459.198,217.445,451.375,214.808z"/>
	</g>
	<g>
		<g>
			<path style="fill:#B3CAD6;" d="M327.83,31.414c0.946-2.805,2.667-5.181,5.007-6.928c0.47-0.351,0.58-1.011,0.262-1.504
				l-1.526-2.373c-0.354-0.551-1.098-0.682-1.625-0.294c-3.208,2.361-5.646,5.686-6.924,9.479c-0.026,0.077-0.052,0.155-0.077,0.233
				c-0.2,0.618,0.164,1.278,0.793,1.44l2.733,0.703c0.577,0.149,1.164-0.18,1.354-0.745
				C327.827,31.421,327.829,31.418,327.83,31.414z"/>
			<path style="fill:#B3CAD6;" d="M356.087,30.769l2.657-0.959c0.605-0.218,0.914-0.902,0.66-1.493
				c-1.628-3.789-4.389-6.94-7.919-9.04c-0.553-0.329-1.271-0.112-1.566,0.46l-1.295,2.51c-0.27,0.523-0.093,1.168,0.409,1.474
				c2.493,1.523,4.455,3.764,5.645,6.449C354.917,30.709,355.533,30.969,356.087,30.769z"/>
			<path style="fill:#B3CAD6;" d="M326.065,34.45l-2.81-0.289c-0.64-0.066-1.215,0.416-1.242,1.059
				c-0.173,4.103,0.954,8.138,3.233,11.574c0.356,0.536,1.096,0.652,1.61,0.265l2.256-1.698c0.47-0.354,0.591-1.012,0.271-1.507
				c-1.596-2.466-2.398-5.335-2.309-8.255C327.093,35.011,326.65,34.511,326.065,34.45z"/>
			<path style="fill:#B3CAD6;" d="M346.084,22.349l0.063,0.022l1.621-4.807l-0.044-0.015c-4.3-1.45-8.918-1.358-13.131,0.24
				c-0.602,0.228-0.878,0.925-0.614,1.512l1.159,2.576c0.242,0.537,0.856,0.8,1.409,0.597
				C339.62,21.349,342.973,21.301,346.084,22.349z"/>
			<path style="fill:#B3CAD6;" d="M359.477,32.449l-2.769,0.553c-0.575,0.115-0.971,0.652-0.898,1.234
				c0.267,2.14,0.047,4.331-0.648,6.394c-0.238,0.707-0.53,1.393-0.871,2.051c-0.27,0.521-0.086,1.163,0.414,1.471l2.406,1.478
				c0.558,0.342,1.285,0.138,1.592-0.44c0.499-0.941,0.923-1.925,1.265-2.939c0.96-2.847,1.249-5.878,0.85-8.834
				C360.731,32.766,360.12,32.321,359.477,32.449z"/>
			<path style="fill:#B3CAD6;" d="M343.382,51.418l0.346,2.803c0.079,0.639,0.677,1.091,1.31,0.974
				c4.047-0.747,7.732-2.74,10.568-5.716c0.444-0.466,0.392-1.214-0.099-1.629l-2.158-1.822c-0.45-0.38-1.118-0.352-1.529,0.07
				c-2.044,2.096-4.666,3.514-7.543,4.079C343.7,50.29,343.31,50.834,343.382,51.418z"/>
			<path style="fill:#B3CAD6;" d="M336.888,49.688c-1.752-0.591-3.336-1.484-4.721-2.661c-0.448-0.381-1.115-0.345-1.527,0.075
				l-1.978,2.016c-0.458,0.467-0.421,1.22,0.073,1.649c1.91,1.657,4.102,2.909,6.532,3.728c1.458,0.492,2.96,0.809,4.479,0.947
				c0.653,0.059,1.225-0.435,1.243-1.091l0.079-2.823c0.016-0.586-0.419-1.092-1.002-1.151
				C338.99,50.268,337.925,50.038,336.888,49.688z"/>
		</g>
		<path style="fill:#DEF2FC;" d="M346.914,19.953c-8.875-2.992-18.495,1.777-21.487,10.651c-2.992,8.875,1.776,18.495,10.651,21.487
			c8.875,2.992,18.495-1.777,21.487-10.651C360.557,32.565,355.788,22.945,346.914,19.953z M338.633,44.512
			c-4.689-1.581-7.208-6.663-5.627-11.352s6.663-7.208,11.352-5.627c4.689,1.581,7.208,6.663,5.627,11.352
			C348.404,43.573,343.322,46.092,338.633,44.512z"/>
		<path style="fill:#B3CAD6;" d="M345.585,23.894c-6.698-2.258-13.958,1.341-16.217,8.039s1.341,13.958,8.039,16.217
			s13.958-1.341,16.217-8.039C355.882,33.413,352.283,26.153,345.585,23.894z M338.633,44.512
			c-4.689-1.581-7.208-6.663-5.627-11.352s6.663-7.208,11.352-5.627c4.689,1.581,7.208,6.663,5.627,11.352
			C348.404,43.573,343.322,46.092,338.633,44.512z"/>
	</g>
	<g>
		<g>
			<path style="fill:#98A3A0;" d="M341.37,107.319c3.607-8.329,9.475-15.151,17.074-19.892c1.526-0.952,2.03-2.94,1.187-4.529
				l-4.056-7.643c-0.941-1.773-3.181-2.364-4.892-1.313c-10.409,6.393-18.709,15.933-23.587,27.195
				c-0.1,0.23-0.198,0.46-0.294,0.691c-0.769,1.839,0.174,3.947,2.056,4.603l8.172,2.848c1.726,0.602,3.603-0.252,4.328-1.93
				C341.362,107.34,341.366,107.329,341.37,107.319z"/>
			<path style="fill:#98A3A0;" d="M427.893,112.576l8.364-2.25c1.905-0.513,3.023-2.522,2.398-4.394
				c-4.007-11.995-11.638-22.333-21.887-29.653c-1.606-1.147-3.856-0.666-4.904,1.006l-4.6,7.34
				c-0.958,1.529-0.583,3.544,0.873,4.61c7.229,5.292,12.651,12.643,15.601,21.153C424.33,112.096,426.149,113.046,427.893,112.576z
				"/>
			<path style="fill:#98A3A0;" d="M335.199,116.146l-8.512-1.602c-1.94-0.365-3.819,0.961-4.067,2.919
				c-1.578,12.494,0.834,25.114,6.919,36.198c0.95,1.73,3.184,2.273,4.854,1.222l7.33-4.613c1.529-0.962,2.066-2.942,1.215-4.535
				c-4.245-7.944-5.964-16.917-4.945-25.82C338.199,118.123,336.973,116.48,335.199,116.146z"/>
			<path style="fill:#98A3A0;" d="M399.476,84.287l0.187,0.082l6.182-14.274l-0.13-0.057c-12.77-5.531-26.908-6.432-40.19-2.625
				c-1.897,0.544-2.921,2.603-2.264,4.464l2.882,8.168c0.601,1.702,2.412,2.663,4.154,2.186
				C379.978,79.577,390.238,80.286,399.476,84.287z"/>
			<path style="fill:#98A3A0;" d="M437.823,118.58l-8.604,0.981c-1.788,0.204-3.134,1.745-3.061,3.543
				c0.268,6.61-0.965,13.247-3.618,19.373c-0.908,2.099-1.975,4.122-3.185,6.045c-0.96,1.524-0.561,3.533,0.89,4.6l6.975,5.132
				c1.616,1.189,3.891,0.75,4.977-0.937c1.767-2.747,3.315-5.647,4.619-8.658c3.663-8.456,5.321-17.643,4.858-26.781
				C441.572,119.87,439.82,118.353,437.823,118.58z"/>
			<path style="fill:#98A3A0;" d="M383.782,172.433l0.34,8.655c0.077,1.972,1.789,3.507,3.753,3.312
				c12.56-1.248,24.33-6.395,33.761-14.765c1.476-1.31,1.51-3.609,0.113-5.004l-6.128-6.122c-1.277-1.276-3.326-1.36-4.69-0.177
				c-6.785,5.883-15.159,9.544-24.096,10.535C385.04,169.066,383.711,170.628,383.782,172.433z"/>
			<path style="fill:#98A3A0;" d="M364.377,165.483c-5.204-2.254-9.816-5.389-13.747-9.339c-1.271-1.278-3.32-1.339-4.685-0.162
				l-6.56,5.654c-1.519,1.309-1.6,3.622-0.2,5.058c5.412,5.552,11.792,9.939,19.009,13.065c4.331,1.876,8.839,3.229,13.445,4.04
				c1.981,0.349,3.854-1.017,4.078-3.016l0.964-8.607c0.2-1.787-1-3.445-2.768-3.774
				C370.652,167.794,367.456,166.817,364.377,165.483z"/>
		</g>
		<path style="fill:#B2BFBB;" d="M402.625,77.175c-26.357-11.415-56.977,0.697-68.392,27.053
			c-11.415,26.357,0.697,56.977,27.053,68.392c26.357,11.415,56.977-0.697,68.392-27.053
			C441.094,119.211,428.981,88.59,402.625,77.175z M371.036,150.11c-13.924-6.031-20.323-22.207-14.292-36.132
			s22.207-20.323,36.132-14.292c13.924,6.031,20.323,22.208,14.292,36.132C401.137,149.742,384.96,156.141,371.036,150.11z"/>
		<path style="fill:#98A3A0;" d="M397.555,88.881c-19.892-8.615-43.001,0.526-51.617,20.418
			c-8.615,19.892,0.526,43.001,20.418,51.617s43.001-0.526,51.617-20.418S417.447,97.496,397.555,88.881z M371.036,150.11
			c-13.924-6.031-20.323-22.207-14.292-36.132s22.207-20.323,36.132-14.292c13.924,6.031,20.323,22.208,14.292,36.132
			C401.137,149.742,384.96,156.141,371.036,150.11z"/>
		<path style="opacity:0.15;" d="M391.333,150.709c-2.649,0.963-5.442,1.534-8.29,1.649c-0.874,0.035-1.753,0.028-2.633-0.022
			c-0.048-0.003-0.097-0.007-0.146-0.01c-3.098-0.191-6.216-0.911-9.229-2.216c-1.305-0.565-2.545-1.22-3.714-1.953
			c-0.779-0.489-1.527-1.013-2.243-1.569c-1.074-0.834-2.075-1.741-2.998-2.709c-0.308-0.323-0.607-0.652-0.898-0.989
			c-0.581-0.672-1.128-1.371-1.639-2.092c-1.022-1.443-1.88-2.986-2.604-4.589h-33.708c1.171,6.06,3.286,11.946,6.309,17.452
			c0.95,1.73,3.184,2.273,4.854,1.223l3.572-2.248c1.376,2.186,2.913,4.277,4.612,6.249l-3.192,2.751
			c-1.519,1.309-1.6,3.622-0.2,5.058c5.412,5.552,11.792,9.939,19.009,13.065c4.331,1.876,8.839,3.23,13.445,4.04
			c1.981,0.349,3.854-1.017,4.078-3.016l0.469-4.19c2.597,0.291,5.194,0.385,7.769,0.284l0.165,4.211
			c0.077,1.972,1.789,3.507,3.753,3.312c1.161-0.115,2.313-0.275,3.46-0.457V150.709z"/>
	</g>
	<g>
		<g>
			<path style="fill:#C4CCCA;" d="M434.636,42.723c1.849-4.27,4.857-7.767,8.753-10.198c0.782-0.488,1.041-1.507,0.608-2.322
				l-2.079-3.918c-0.482-0.909-1.631-1.212-2.508-0.673c-5.336,3.277-9.591,8.168-12.092,13.941
				c-0.051,0.118-0.101,0.236-0.151,0.354c-0.394,0.942,0.089,2.023,1.054,2.36l4.189,1.46c0.885,0.308,1.847-0.129,2.219-0.989
				C434.632,42.734,434.634,42.729,434.636,42.723z"/>
			<path style="fill:#C4CCCA;" d="M478.99,45.418l4.288-1.153c0.977-0.263,1.55-1.293,1.229-2.252
				c-2.054-6.149-5.966-11.449-11.22-15.201c-0.823-0.588-1.977-0.342-2.514,0.516l-2.358,3.763
				c-0.491,0.784-0.299,1.817,0.448,2.364c3.706,2.713,6.485,6.481,7.998,10.844C477.164,45.172,478.096,45.659,478.99,45.418z"/>
			<path style="fill:#C4CCCA;" d="M431.472,47.248l-4.364-0.821c-0.994-0.187-1.958,0.493-2.085,1.497
				c-0.809,6.405,0.428,12.874,3.547,18.556c0.487,0.887,1.632,1.165,2.488,0.627l3.758-2.365c0.784-0.493,1.059-1.508,0.623-2.325
				c-2.176-4.072-3.057-8.672-2.535-13.236C433.01,48.261,432.382,47.419,431.472,47.248z"/>
			<path style="fill:#C4CCCA;" d="M464.423,30.916l0.096,0.042l3.169-7.318l-0.066-0.029c-6.546-2.835-13.794-3.297-20.603-1.346
				c-0.973,0.279-1.497,1.335-1.161,2.289l1.478,4.187c0.308,0.873,1.237,1.365,2.129,1.121
				C454.427,28.501,459.687,28.865,464.423,30.916z"/>
			<path style="fill:#C4CCCA;" d="M484.081,48.496l-4.411,0.503c-0.916,0.104-1.607,0.895-1.569,1.816
				c0.137,3.388-0.494,6.791-1.855,9.931c-0.466,1.076-1.013,2.113-1.633,3.099c-0.492,0.782-0.288,1.811,0.456,2.358l3.576,2.631
				c0.829,0.609,1.994,0.385,2.551-0.48c0.906-1.408,1.699-2.895,2.368-4.438c1.878-4.335,2.728-9.044,2.49-13.729
				C486.003,49.157,485.105,48.379,484.081,48.496z"/>
			<path style="fill:#C4CCCA;" d="M456.377,76.103l0.174,4.437c0.04,1.011,0.917,1.798,1.924,1.698
				c6.439-0.64,12.472-3.278,17.307-7.569c0.757-0.672,0.774-1.85,0.058-2.565l-3.141-3.138c-0.655-0.654-1.705-0.697-2.404-0.091
				c-3.478,3.016-7.771,4.893-12.352,5.401C457.022,74.377,456.341,75.178,456.377,76.103z"/>
			<path style="fill:#C4CCCA;" d="M446.43,72.54c-2.668-1.156-5.032-2.762-7.047-4.788c-0.652-0.655-1.702-0.687-2.402-0.083
				l-3.363,2.898c-0.779,0.671-0.82,1.857-0.102,2.593c2.774,2.846,6.045,5.095,9.745,6.697c2.22,0.962,4.531,1.656,6.893,2.071
				c1.016,0.179,1.976-0.521,2.09-1.546l0.494-4.412c0.103-0.916-0.513-1.766-1.419-1.935
				C449.647,73.725,448.008,73.224,446.43,72.54z"/>
		</g>
		<path style="fill:#DFE8E5;" d="M466.037,27.27c-13.511-5.852-29.208,0.357-35.06,13.868c-5.852,13.511,0.357,29.208,13.868,35.06
			c13.511,5.852,29.208-0.357,35.06-13.868C485.758,48.819,479.548,33.122,466.037,27.27z M449.843,64.659
			c-7.138-3.092-10.418-11.384-7.327-18.522c3.092-7.138,11.384-10.418,18.522-7.327c7.138,3.092,10.418,11.384,7.327,18.522
			C465.274,64.47,456.982,67.751,449.843,64.659z"/>
		<path style="fill:#C4CCCA;" d="M463.438,33.271c-10.197-4.417-22.044,0.27-26.46,10.467c-4.417,10.197,0.27,22.044,10.467,26.46
			c10.197,4.417,22.044-0.27,26.461-10.467C478.321,49.534,473.635,37.688,463.438,33.271z M449.843,64.659
			c-7.138-3.092-10.418-11.384-7.327-18.522c3.092-7.138,11.384-10.418,18.522-7.327c7.138,3.092,10.418,11.384,7.327,18.522
			C465.274,64.47,456.982,67.751,449.843,64.659z"/>
	</g>
	<g>
		<g>
			<path style="fill:#71827E;" d="M435.269,278.014c1.792-4.138,4.707-7.527,8.482-9.882c0.758-0.473,1.008-1.461,0.59-2.25
				l-2.015-3.797c-0.467-0.881-1.581-1.174-2.43-0.652c-5.171,3.176-9.295,7.915-11.718,13.51c-0.049,0.114-0.098,0.229-0.146,0.344
				c-0.382,0.913,0.086,1.961,1.021,2.287l4.06,1.415c0.857,0.299,1.79-0.125,2.15-0.959
				C435.265,278.024,435.267,278.019,435.269,278.014z"/>
			<path style="fill:#71827E;" d="M478.253,280.626l4.155-1.118c0.947-0.255,1.502-1.253,1.191-2.183
				c-1.991-5.959-5.781-11.095-10.873-14.732c-0.798-0.57-1.915-0.331-2.436,0.5l-2.285,3.646c-0.476,0.76-0.29,1.761,0.434,2.29
				c3.591,2.629,6.285,6.281,7.751,10.509C476.483,280.387,477.386,280.859,478.253,280.626z"/>
			<path style="fill:#71827E;" d="M432.204,282.399l-4.229-0.796c-0.964-0.181-1.897,0.478-2.02,1.45
				c-0.784,6.207,0.414,12.476,3.438,17.983c0.472,0.859,1.582,1.129,2.411,0.607l3.642-2.292c0.759-0.478,1.026-1.462,0.603-2.253
				c-2.109-3.947-2.963-8.404-2.457-12.827C433.694,283.381,433.085,282.565,432.204,282.399z"/>
			<path style="fill:#71827E;" d="M464.136,266.572l0.093,0.041l3.071-7.092l-0.064-0.028c-6.344-2.748-13.367-3.195-19.966-1.304
				c-0.943,0.27-1.451,1.293-1.125,2.218l1.432,4.058c0.299,0.846,1.199,1.323,2.064,1.086
				C454.449,264.232,459.547,264.584,464.136,266.572z"/>
			<path style="fill:#71827E;" d="M483.186,283.608l-4.274,0.487c-0.888,0.101-1.557,0.867-1.521,1.76
				c0.133,3.284-0.479,6.581-1.797,9.625c-0.451,1.043-0.981,2.048-1.583,3.003c-0.477,0.757-0.279,1.755,0.442,2.285l3.465,2.549
				c0.803,0.591,1.933,0.373,2.472-0.466c0.878-1.365,1.647-2.805,2.294-4.301c1.82-4.201,2.643-8.765,2.414-13.305
				C485.049,284.249,484.178,283.495,483.186,283.608z"/>
			<path style="fill:#71827E;" d="M456.339,310.362l0.169,4.3c0.038,0.98,0.889,1.742,1.864,1.646
				c6.24-0.62,12.087-3.177,16.772-7.335c0.733-0.651,0.75-1.793,0.056-2.486l-3.044-3.041c-0.635-0.634-1.652-0.676-2.33-0.088
				c-3.37,2.923-7.531,4.741-11.97,5.234C456.964,308.689,456.304,309.465,456.339,310.362z"/>
			<path style="fill:#71827E;" d="M446.699,306.909c-2.585-1.12-4.876-2.677-6.829-4.64c-0.632-0.635-1.649-0.665-2.328-0.081
				l-3.259,2.809c-0.755,0.65-0.795,1.799-0.099,2.513c2.689,2.758,5.858,4.938,9.444,6.491c2.152,0.932,4.391,1.604,6.68,2.007
				c0.984,0.173,1.914-0.505,2.026-1.498l0.479-4.276c0.099-0.888-0.497-1.712-1.375-1.875
				C449.816,308.057,448.229,307.572,446.699,306.909z"/>
		</g>
		<path style="fill:#98A3A0;" d="M465.7,263.038c-13.094-5.671-28.306,0.346-33.977,13.44c-5.671,13.094,0.346,28.306,13.44,33.977
			c13.094,5.671,28.306-0.346,33.977-13.44C484.811,283.921,478.794,268.71,465.7,263.038z M450.007,299.272
			c-6.917-2.996-10.096-11.033-7.1-17.95c2.996-6.917,11.033-10.096,17.95-7.1c6.917,2.996,10.096,11.033,7.1,17.95
			C464.961,299.089,456.924,302.268,450.007,299.272z"/>
		<path style="fill:#71827E;" d="M463.181,268.854c-9.882-4.28-21.363,0.261-25.643,10.143c-4.28,9.882,0.261,21.363,10.143,25.643
			c9.882,4.28,21.363-0.261,25.643-10.143C477.605,284.614,473.063,273.134,463.181,268.854z M450.007,299.272
			c-6.917-2.996-10.096-11.032-7.1-17.95c2.996-6.917,11.033-10.096,17.95-7.1c6.917,2.996,10.096,11.032,7.1,17.95
			C464.961,299.089,456.924,302.268,450.007,299.272z"/>
	</g>
	<g>
		<path style="fill:#D1DEDA;" d="M371.697,318.793H128.303c-5.662,0-10.253-4.59-10.253-10.253v-155.81
			c0-5.662,4.59-10.253,10.253-10.253h243.394c5.662,0,10.253,4.59,10.253,10.253v155.81
			C381.95,314.203,377.359,318.793,371.697,318.793z"/>
		<polygon style="opacity:0.1;" points="368.371,159.023 368.371,156.576 368.371,142.478 311.513,142.478 311.513,156.576 
			311.513,159.023 		"/>
		<circle style="fill:#8C9693;" cx="250" cy="310.243" r="5.426"/>
		<path style="fill:#98A3A0;" d="M369.94,302.249H130.06c-3.576,0-6.475-2.899-6.475-6.475V165.498c0-3.576,2.899-6.475,6.475-6.475
			h239.88c3.576,0,6.475,2.899,6.475,6.475v130.276C376.415,299.35,373.516,302.249,369.94,302.249z"/>
		<path style="fill:#EEFBF9;" d="M366.869,298.833H133.131c-3.444,0-6.235-2.792-6.235-6.235V168.674
			c0-3.444,2.792-6.235,6.235-6.235h233.737c3.444,0,6.235,2.792,6.235,6.235v123.924
			C373.104,296.042,370.312,298.833,366.869,298.833z"/>
		<g>
			<path style="fill:#FFFFFF;" d="M136.054,165.96c-3.31,0-5.993,2.683-5.993,5.994v46.572l52.566-52.566H136.054z"/>
			<path style="fill:#FFFFFF;" d="M234.139,165.96h-23.32l-80.76,80.76v23.272C164.807,235.369,199.503,200.695,234.139,165.96z"/>
			<path style="fill:#FFFFFF;" d="M311.153,165.96l-9.593,9.592c-39.919,39.919-79.839,79.839-119.758,119.758h51.473l25.315-25.315
				c34.679-34.679,69.357-69.357,104.036-104.036H311.153z"/>
			<polygon style="fill:#FFFFFF;" points="323.942,295.311 369.94,249.313 369.94,233.173 307.802,295.311 			"/>
			<path style="fill:#FFFFFF;" d="M363.946,295.311c3.31,0,5.993-2.683,5.993-5.993v-11.811c-5.935,5.935-11.87,11.87-17.804,17.804
				H363.946z"/>
			<path style="fill:#FFFFFF;" d="M261.469,295.311h18.139l90.332-90.332V186.84C333.783,222.997,297.626,259.154,261.469,295.311z"
				/>
			<path style="fill:#FFFFFF;" d="M262.27,165.96c-42.844,43.007-85.774,85.928-128.788,128.765c0.78,0.372,1.65,0.586,2.572,0.586
				h17.555c8.553-8.553,17.106-17.106,25.659-25.659c34.564-34.564,69.128-69.128,103.692-103.692H262.27z"/>
		</g>
		<g>
			
				<text transform="matrix(1 0 0 1 177.9068 238.8423)" style="fill:#6B7371; font-family:'Montserrat-Bold'; font-size:37.6668px;">UNDER</text>
			
				<text transform="matrix(1 0 0 1 179.5808 254.2798)" style="fill:#6B7371; font-family:'Montserrat-Bold'; font-size:16.5791px;">CONSTRUCTION</text>
			<rect x="174.281" y="205.583" style="fill:none;stroke:#6B7371;stroke-miterlimit:10;" width="151.438" height="54.68"/>
		</g>
		<circle style="fill:#B2BFBB;" cx="250" cy="310.243" r="4.268"/>
		<circle style="fill:#E6F5F0;" cx="250" cy="310.243" r="3.047"/>
		<g>
			<path style="fill:#FFFFFF;" d="M250.513,307.248c-1.171,1.165-2.344,2.327-3.517,3.49c0.101,0.614,0.391,1.159,0.799,1.592
				l4.286-4.286C251.654,307.641,251.117,307.352,250.513,307.248z"/>
			<path style="fill:#FFFFFF;" d="M252.61,308.687l-4.173,4.173c0.247,0.149,0.519,0.259,0.807,0.333l3.699-3.699
				C252.869,309.206,252.759,308.934,252.61,308.687z"/>
			<path style="fill:#FFFFFF;" d="M250.354,313.254c1.391-0.166,2.484-1.259,2.65-2.65L250.354,313.254z"/>
		</g>
		<path style="fill:#666E6B;" d="M262.114,152.361h-24.228c-0.915,0-1.663-0.748-1.663-1.663l0,0c0-0.915,0.748-1.663,1.663-1.663
			h24.228c0.915,0,1.663,0.748,1.663,1.663l0,0C263.777,151.612,263.029,152.361,262.114,152.361z"/>
		<path style="fill:#666E6B;" d="M275.156,150.697c0,2.054-1.665,3.719-3.719,3.719s-3.719-1.665-3.719-3.719
			c0-2.054,1.665-3.719,3.719-3.719S275.156,148.643,275.156,150.697z"/>
		<path style="fill:#D1DEDA;" d="M273.723,150.697c0,1.262-1.023,2.285-2.285,2.285s-2.285-1.023-2.285-2.285
			c0-1.262,1.023-2.285,2.285-2.285S273.723,149.435,273.723,150.697z"/>
		<path style="fill:#98A3A0;" d="M281.613,150.697c0,0.998-0.809,1.807-1.807,1.807s-1.807-0.809-1.807-1.807
			c0-0.998,0.809-1.807,1.807-1.807S281.613,149.699,281.613,150.697z"/>
		<path style="fill:#98A3A0;" d="M233.101,150.697c0,0.804-0.652,1.456-1.456,1.456c-0.804,0-1.456-0.652-1.456-1.456
			c0-0.804,0.652-1.456,1.456-1.456C232.449,149.242,233.101,149.893,233.101,150.697z"/>
		<polygon style="fill:#D1DEDA;" points="297.842,359.593 202.157,359.593 211.055,318.793 288.945,318.793 		"/>
		<path style="fill:#C5D1CE;" d="M290.52,339.193l7.322,20.4l-8.898-40.8h-77.889l-8.898,40.8l7.322-20.4
			c3.966-7.244,8.802-12.818,17.06-12.818h41.391C276.189,326.376,286.554,331.95,290.52,339.193z"/>
		<path style="fill:#B2BFBB;" d="M223.178,322.339H270.5c7.072,0,15.494,3.639,21.182,9.008l-2.738-12.553h-77.889l-2.356,10.801
			C212.372,325.207,216.91,322.339,223.178,322.339z"/>
		<path style="fill:#C5D1CE;" d="M303.59,368.135H196.41c-0.609,0-1.107-0.498-1.107-1.107v-10.249c0-0.609,0.498-1.107,1.107-1.107
			H303.59c0.609,0,1.107,0.498,1.107,1.107v10.249C304.698,367.637,304.199,368.135,303.59,368.135z"/>
		<path style="fill:#B2BFBB;" d="M303.59,361.15H196.41c-0.609,0-1.107-0.498-1.107-1.107v6.985c0,0.609,0.498,1.107,1.107,1.107
			H303.59c0.609,0,1.107-0.498,1.107-1.107v-6.985C304.698,360.652,304.199,361.15,303.59,361.15z"/>
		<path style="fill:#98A3A0;" d="M309.098,379.456H190.902c-1.571,0-2.856-1.285-2.856-2.856v-8.282
			c0-1.571,1.285-2.856,2.856-2.856h118.195c1.571,0,2.856,1.285,2.856,2.856v8.282
			C311.953,378.171,310.668,379.456,309.098,379.456z"/>
		<path style="fill:#8D9B96;" d="M309.098,372.968H190.902c-1.571,0-2.856-1.285-2.856-2.856v6.488c0,1.571,1.285,2.856,2.856,2.856
			h118.195c1.571,0,2.856-1.285,2.856-2.856v-6.488C311.953,371.683,310.668,372.968,309.098,372.968z"/>
		<g style="opacity:0.2;">
			<path style="fill:#FFFFFF;" d="M136.054,165.96c-3.31,0-5.993,2.683-5.993,5.994v46.572l52.566-52.566H136.054z"/>
			<path style="fill:#FFFFFF;" d="M234.139,165.96h-23.32l-80.76,80.76v23.272C164.807,235.369,199.503,200.695,234.139,165.96z"/>
			<path style="fill:#FFFFFF;" d="M311.153,165.96l-9.593,9.592c-39.919,39.919-79.839,79.839-119.758,119.758h51.473l25.315-25.315
				c34.679-34.679,69.357-69.357,104.036-104.036H311.153z"/>
			<polygon style="fill:#FFFFFF;" points="323.942,295.311 369.94,249.313 369.94,233.173 307.802,295.311 			"/>
			<path style="fill:#FFFFFF;" d="M363.946,295.311c3.31,0,5.993-2.683,5.993-5.993v-11.811c-5.935,5.935-11.87,11.87-17.804,17.804
				H363.946z"/>
			<path style="fill:#FFFFFF;" d="M261.469,295.311h18.139l90.332-90.332V186.84C333.783,222.997,297.626,259.154,261.469,295.311z"
				/>
			<path style="fill:#FFFFFF;" d="M262.27,165.96c-42.844,43.007-85.774,85.928-128.788,128.765c0.78,0.372,1.65,0.586,2.572,0.586
				h17.555c8.553-8.553,17.106-17.106,25.659-25.659c34.564-34.564,69.128-69.128,103.692-103.692H262.27z"/>
		</g>
		<polygon style="opacity:0.1;" points="310.032,159.023 310.032,174.635 320.135,174.635 320.135,176.107 325.5,176.107 
			325.5,174.635 335.778,174.635 335.778,176.107 341.143,176.107 341.143,174.635 351.421,174.635 351.421,176.107 
			356.786,176.107 356.786,174.635 366.89,174.635 366.89,159.023 		"/>
	</g>
	<path style="fill:#D1DEDA;" d="M386,393.484H32.172c-5.5,0-10,4.5-10,10l0,0c0,5.5,4.5,10,10,10H386c5.5,0,10-4.5,10-10l0,0
		C396,397.984,391.5,393.484,386,393.484z"/>
	<g>
		<rect x="104.158" y="79.158" style="fill:#98A3A0;" width="37" height="37"/>
		
			<rect x="141.158" y="79.158" transform="matrix(-1 -1.224647e-16 1.224647e-16 -1 294.6492 195.3156)" style="fill:#71827E;" width="12.333" height="37"/>
		
			<rect x="91.825" y="79.158" transform="matrix(-1 -1.224647e-16 1.224647e-16 -1 195.9825 195.3156)" style="fill:#71827E;" width="12.333" height="37"/>
		
			<rect x="153.491" y="79.158" transform="matrix(-1 -1.224647e-16 1.224647e-16 -1 319.3159 195.3156)" style="fill:#98A3A0;" width="12.333" height="37"/>
		<rect x="31.833" y="79.158" style="fill:#71827E;" width="23.939" height="66.49"/>
		
			<polyline style="fill:none;stroke:#47524F;stroke-width:3;stroke-linecap:round;stroke-linejoin:round;stroke-miterlimit:10;" points="
			91.825,70.742 91.825,372.902 55.825,372.902 55.825,70.742 		"/>
		
			<polyline style="fill:none;stroke:#47524F;stroke-width:3;stroke-linecap:round;stroke-linejoin:round;stroke-miterlimit:10;" points="
			55.971,370.364 91.825,332.986 55.825,295.458 55.971,295.458 91.825,258.081 55.825,220.553 55.971,220.553 91.825,183.175 
			55.825,145.647 55.971,145.647 91.825,108.269 54.606,71.852 91.825,37.933 		"/>
		<path style="fill:#D1DEDA;" d="M106.332,387.993H41.317c-1.613,0-2.933-1.32-2.933-2.933v-11.763c0-1.613,1.32-2.933,2.933-2.933
			h65.015c1.613,0,2.933,1.32,2.933,2.933v11.763C109.265,386.673,107.945,387.993,106.332,387.993z"/>
		<path style="fill:#C5D1CE;" d="M106.332,378.927H41.317c-1.613,0-2.933-1.32-2.933-2.933v9.066c0,1.613,1.32,2.933,2.933,2.933
			h65.014c1.613,0,2.933-1.32,2.933-2.933v-9.066C109.265,377.608,107.945,378.927,106.332,378.927z"/>
		<path style="fill:#B2BFBB;" d="M111.568,403.484H36.081c-1.733,0-3.151-1.418-3.151-3.151v-11.328
			c0-1.733,1.418-3.151,3.151-3.151h75.487c1.733,0,3.151,1.418,3.151,3.151v11.328
			C114.719,402.066,113.301,403.484,111.568,403.484z"/>
		<path style="fill:#8D9B96;" d="M111.568,394.669H36.081c-1.733,0-3.151-1.418-3.151-3.151v8.815c0,1.733,1.418,3.151,3.151,3.151
			h75.487c1.733,0,3.151-1.418,3.151-3.151v-8.815C114.719,393.251,113.301,394.669,111.568,394.669z"/>
		<g>
			
				<polyline style="fill:none;stroke:#47524F;stroke-width:3;stroke-linecap:round;stroke-linejoin:round;stroke-miterlimit:10;" points="
				341.201,79.158 341.201,124.758 319.34,138.741 			"/>
			<circle style="fill:#FFC500;" cx="341.202" cy="106.849" r="8.571"/>
			<path style="fill:#E6B100;" d="M341.201,98.278c4.734,0,8.571,3.837,8.571,8.571c0,4.734-3.837,8.571-8.571,8.571V98.278z"/>
			
				<line style="fill:none;stroke:#47524F;stroke-width:3;stroke-linecap:round;stroke-linejoin:round;stroke-miterlimit:10;" x1="341.201" y1="124.758" x2="363.063" y2="138.741"/>
			<rect x="314.079" y="136.29" style="fill:#FFC500;" width="54.245" height="15.073"/>
			<rect x="314.079" y="151.363" style="fill:#E6B100;" width="54.245" height="15.073"/>
			<rect x="323.719" y="136.29" style="fill:#5D7F91;" width="5.118" height="31.55"/>
			<rect x="353.566" y="136.29" style="fill:#5D7F91;" width="5.118" height="31.55"/>
			<rect x="338.642" y="136.29" style="fill:#5D7F91;" width="5.118" height="31.55"/>
		</g>
		
			<line style="fill:none;stroke:#47524F;stroke-width:3;stroke-linecap:round;stroke-linejoin:round;stroke-miterlimit:10;" x1="91.825" y1="332.986" x2="55.773" y2="332.986"/>
		
			<line style="fill:none;stroke:#47524F;stroke-width:3;stroke-linecap:round;stroke-linejoin:round;stroke-miterlimit:10;" x1="91.825" y1="295.452" x2="55.773" y2="295.452"/>
		
			<line style="fill:none;stroke:#47524F;stroke-width:3;stroke-linecap:round;stroke-linejoin:round;stroke-miterlimit:10;" x1="91.825" y1="258.026" x2="55.773" y2="258.026"/>
		
			<line style="fill:none;stroke:#47524F;stroke-width:3;stroke-linecap:round;stroke-linejoin:round;stroke-miterlimit:10;" x1="91.825" y1="220.553" x2="55.773" y2="220.553"/>
		
			<line style="fill:none;stroke:#47524F;stroke-width:3;stroke-linecap:round;stroke-linejoin:round;stroke-miterlimit:10;" x1="91.825" y1="183.104" x2="55.773" y2="183.104"/>
		
			<line style="fill:none;stroke:#47524F;stroke-width:3;stroke-linecap:round;stroke-linejoin:round;stroke-miterlimit:10;" x1="91.825" y1="145.676" x2="55.773" y2="145.676"/>
		
			<line style="fill:none;stroke:#47524F;stroke-width:3;stroke-linecap:round;stroke-linejoin:round;stroke-miterlimit:10;" x1="91.825" y1="108.218" x2="55.773" y2="108.218"/>
		
			<polyline style="fill:none;stroke:#47524F;stroke-width:3;stroke-linecap:round;stroke-linejoin:round;stroke-miterlimit:10;" points="
			341.494,72.439 271.364,37.095 91.825,37.095 91.825,70.837 		"/>
		
			<polyline style="fill:none;stroke:#47524F;stroke-width:3;stroke-linecap:round;stroke-linejoin:round;stroke-miterlimit:10;" points="
			91.825,37.095 91.825,16.965 271.364,37.095 		"/>
		
			<polyline style="fill:none;stroke:#47524F;stroke-width:3;stroke-linecap:round;stroke-linejoin:round;stroke-miterlimit:10;" points="
			91.825,71.093 127.874,37.095 163.924,71.093 199.619,37.095 199.619,37.095 235.314,71.093 271.364,37.095 		"/>
		
			<line style="fill:none;stroke:#47524F;stroke-width:3;stroke-linecap:round;stroke-linejoin:round;stroke-miterlimit:10;" x1="127.874" y1="37.095" x2="127.874" y2="71.093"/>
		
			<line style="fill:none;stroke:#47524F;stroke-width:3;stroke-linecap:round;stroke-linejoin:round;stroke-miterlimit:10;" x1="163.797" y1="37.095" x2="163.797" y2="71.093"/>
		
			<line style="fill:none;stroke:#47524F;stroke-width:3;stroke-linecap:round;stroke-linejoin:round;stroke-miterlimit:10;" x1="199.505" y1="37.095" x2="199.505" y2="71.093"/>
		
			<line style="fill:none;stroke:#47524F;stroke-width:3;stroke-linecap:round;stroke-linejoin:round;stroke-miterlimit:10;" x1="235.212" y1="37.095" x2="235.212" y2="71.093"/>
		
			<line style="fill:none;stroke:#47524F;stroke-width:3;stroke-linecap:round;stroke-linejoin:round;stroke-miterlimit:10;" x1="271.364" y1="37.095" x2="271.364" y2="71.093"/>
		
			<line style="fill:none;stroke:#47524F;stroke-width:3;stroke-linecap:round;stroke-linejoin:round;stroke-miterlimit:10;" x1="91.825" y1="16.965" x2="33.627" y2="72.374"/>
		<rect x="31.833" y="70.837" style="fill:#FFC500;" width="311.368" height="8.321"/>
		<rect x="31.833" y="74.997" style="fill:#E6B100;" width="311.368" height="4.16"/>
	</g>
	<path style="fill:#D1DEDA;" d="M420.226,387.144h-70.388c-3.241,0-5.893-2.652-5.893-5.893l0,0c0-3.241,2.652-5.893,5.893-5.893
		h70.388c3.241,0,5.893,2.652,5.893,5.893l0,0C426.118,384.492,423.467,387.144,420.226,387.144z"/>
	<g>
		<polygon style="fill:#D1DEDA;" points="407.842,376.314 359.544,376.314 377.863,318.506 389.523,318.506 		"/>
		<path style="fill:#A7B8B2;" d="M383.693,368.707c-7.245,0-14.247-0.957-20.871-2.736l-3.278,10.342h48.297l-3.277-10.342
			C397.94,367.75,390.938,368.707,383.693,368.707z"/>
		<path style="fill:#D1DEDA;" d="M413.368,380.752h-59.351c-2.273,0-4.133-1.86-4.133-4.133v-0.61c0-2.273,1.86-4.133,4.133-4.133
			h59.351c2.273,0,4.133,1.86,4.133,4.133v0.61C417.501,378.892,415.641,380.752,413.368,380.752z"/>
		<path style="fill:#C0CCC8;" d="M413.652,376.314h-59.919c-1.416,0-2.657-0.896-3.325-2.219c-0.331,0.654-0.523,1.411-0.523,2.219
			c0,2.441,1.732,4.438,3.849,4.438h59.919c2.117,0,3.849-1.997,3.849-4.438c0-0.808-0.193-1.565-0.523-2.219
			C416.309,375.418,415.068,376.314,413.652,376.314z"/>
		<polygon style="fill:#E6B100;" points="370.91,340.449 396.476,340.449 392.71,328.564 374.676,328.564 		"/>
		<polygon style="fill:#E6B100;" points="363.461,363.953 403.925,363.953 400.158,352.069 367.227,352.069 		"/>
		<polygon style="fill:#FFFFFF;" points="378.847,320.881 367.853,358.119 385.032,320.881 		"/>
	</g>
	<path style="fill:#D1DEDA;" d="M332.811,452.769h-69.345c-3.193,0-5.805-2.613-5.805-5.805l0,0c0-3.193,2.612-5.805,5.805-5.805
		h69.345c3.193,0,5.805,2.612,5.805,5.805l0,0C338.617,450.157,336.004,452.769,332.811,452.769z"/>
	<g>
		<polygon style="fill:#B6C1BE;" points="320.611,442.1 273.029,442.1 291.077,385.148 302.563,385.148 		"/>
		<path style="fill:#8D9B96;" d="M296.82,434.605c-7.138,0-14.036-0.943-20.562-2.695l-3.229,10.189h47.581l-3.229-10.189
			C310.856,433.663,303.958,434.605,296.82,434.605z"/>
		<path style="fill:#B6C1BE;" d="M326.056,446.471h-58.471c-2.239,0-4.072-1.832-4.072-4.071v-0.601
			c0-2.239,1.832-4.071,4.072-4.071h58.471c2.239,0,4.072,1.832,4.072,4.071v0.601C330.127,444.639,328.295,446.471,326.056,446.471
			z"/>
		<path style="fill:#A5AFAC;" d="M326.335,442.1h-59.031c-1.395,0-2.618-0.883-3.276-2.186c-0.326,0.645-0.516,1.39-0.516,2.186
			c0,2.405,1.706,4.372,3.792,4.372h59.031c2.086,0,3.792-1.967,3.792-4.372c0-0.796-0.19-1.541-0.516-2.186
			C328.953,441.217,327.731,442.1,326.335,442.1z"/>
		<polygon style="fill:#E6B100;" points="284.227,406.766 309.414,406.766 305.704,395.057 287.937,395.057 		"/>
		<polygon style="fill:#E6B100;" points="276.888,429.922 316.752,429.922 313.042,418.214 280.599,418.214 		"/>
		<polygon style="fill:#FFFFFF;" points="292.046,387.488 281.215,424.174 298.139,387.488 		"/>
	</g>
	<path style="fill:#D1DEDA;" d="M483.86,400.745h-58.433c-3.04,0-5.528-2.488-5.528-5.528l0,0c0-3.04,2.488-5.528,5.528-5.528
		h58.433c3.04,0,5.528,2.488,5.528,5.528l0,0C489.388,398.257,486.9,400.745,483.86,400.745z"/>
	<g>
		<polygon style="fill:#B6C1BE;" points="472.363,391.883 435.236,391.883 449.318,347.445 458.281,347.445 		"/>
		<path style="fill:#8D9B96;" d="M453.8,386.035c-5.569,0-10.952-0.736-16.044-2.103l-2.52,7.95h37.127l-2.519-7.95
			C464.752,385.3,459.369,386.035,453.8,386.035z"/>
		<path style="fill:#B6C1BE;" d="M476.612,395.294h-45.623c-1.747,0-3.177-1.43-3.177-3.177v-0.469c0-1.747,1.43-3.177,3.177-3.177
			h45.623c1.747,0,3.177,1.43,3.177,3.177v0.469C479.788,393.865,478.359,395.294,476.612,395.294z"/>
		<path style="fill:#A5AFAC;" d="M476.83,391.883h-46.06c-1.089,0-2.043-0.689-2.556-1.706c-0.254,0.503-0.402,1.085-0.402,1.706
			c0,1.876,1.331,3.411,2.959,3.411h46.06c1.627,0,2.959-1.535,2.959-3.411c0-0.621-0.148-1.203-0.402-1.706
			C478.872,391.194,477.919,391.883,476.83,391.883z"/>
		<polygon style="fill:#C99B00;" points="443.973,364.313 463.626,364.313 460.731,355.177 446.868,355.177 		"/>
		<polygon style="fill:#C99B00;" points="438.248,382.381 469.352,382.381 466.457,373.246 441.143,373.246 		"/>
		<polygon style="fill:#FFFFFF;" points="450.075,349.271 441.624,377.896 454.829,349.271 		"/>
	</g>
	<path style="fill:#D1DEDA;" d="M470.911,480.793H355.174c-4.63,0-8.419-3.789-8.419-8.419l0,0c0-4.631,3.789-8.419,8.419-8.419
		h115.737c4.631,0,8.419,3.789,8.419,8.419l0,0C479.33,477.004,475.542,480.793,470.911,480.793z"/>
	<path style="fill:#D1DEDA;" d="M200.819,467.285H55.007c-4.032,0-7.33-3.299-7.33-7.331l0,0c0-4.032,3.299-7.33,7.33-7.33h145.811
		c4.032,0,7.33,3.299,7.33,7.33l0,0C208.149,463.987,204.85,467.285,200.819,467.285z"/>
	<g>
		<polygon style="fill:#FFFFFF;" points="453.414,466.219 374.445,466.219 404.397,371.699 423.461,371.699 		"/>
		<path style="fill:#D1DEDA;" d="M413.929,453.781c-11.846,0-23.295-1.565-34.126-4.473l-5.359,16.911h78.969l-5.359-16.911
			C437.225,452.216,425.775,453.781,413.929,453.781z"/>
		<path style="fill:#FFFFFF;" d="M462.45,473.474h-97.042c-3.717,0-6.757-3.041-6.757-6.757v-0.997c0-3.717,3.041-6.757,6.757-6.757
			h97.042c3.716,0,6.757,3.041,6.757,6.757v0.997C469.208,470.434,466.167,473.474,462.45,473.474z"/>
		<path style="fill:#E8F2EF;" d="M462.915,466.219h-97.971c-2.316,0-4.344-1.465-5.437-3.628c-0.54,1.07-0.856,2.307-0.856,3.628
			c0,3.991,2.832,7.256,6.293,7.256h97.971c3.461,0,6.293-3.265,6.293-7.256c0-1.321-0.315-2.558-0.856-3.628
			C467.259,464.753,465.23,466.219,462.915,466.219z"/>
		<polygon style="fill:#FFC500;" points="393.028,407.576 434.83,407.576 428.673,388.144 399.186,388.144 		"/>
		<polygon style="fill:#FFC500;" points="380.849,446.008 447.009,446.008 440.851,426.576 387.007,426.576 		"/>
		<polygon style="fill:#FFFFFF;" points="406.007,375.582 388.03,436.469 416.118,375.582 		"/>
	</g>
	<g>
		<rect x="67.411" y="345.895" style="fill:#98A3A0;" width="7.057" height="111.899"/>
		<g>
			<rect x="67.412" y="356.539" style="fill:#77807D;" width="7.057" height="46.373"/>
			<rect x="67.412" y="408.96" style="fill:#77807D;" width="7.057" height="14.113"/>
			<rect x="67.412" y="429.122" style="fill:#77807D;" width="7.057" height="14.113"/>
		</g>
		<path style="fill:#98A3A0;" d="M188.53,457.793h-3.318c-1.032,0-1.869-0.837-1.869-1.869v-108.16c0-1.032,0.837-1.869,1.869-1.869
			h3.318c1.032,0,1.869,0.837,1.869,1.869v108.16C190.4,456.957,189.563,457.793,188.53,457.793z"/>
		<g>
			<rect x="183.343" y="408.96" style="fill:#77807D;" width="7.057" height="14.113"/>
			<rect x="183.343" y="429.122" style="fill:#77807D;" width="7.057" height="14.113"/>
			<rect x="183.343" y="356.539" style="fill:#77807D;" width="7.057" height="46.373"/>
		</g>
		<path style="fill:#FFFFFF;" d="M199.746,399.198H56.806c-1.032,0-1.869-0.837-1.869-1.869v-42.634
			c0-1.032,0.837-1.869,1.869-1.869h142.94c1.032,0,1.869,0.837,1.869,1.869v42.634
			C201.615,398.361,200.778,399.198,199.746,399.198z"/>
		<path style="fill:#FFFFFF;" d="M199.746,419.36H56.806c-1.032,0-1.869-0.837-1.869-1.869v-10.375c0-1.032,0.837-1.869,1.869-1.869
			h142.94c1.032,0,1.869,0.837,1.869,1.869v10.375C201.615,418.523,200.778,419.36,199.746,419.36z"/>
		<path style="fill:#FFFFFF;" d="M199.746,439.522H56.806c-1.032,0-1.869-0.837-1.869-1.869v-10.375
			c0-1.032,0.837-1.869,1.869-1.869h142.94c1.032,0,1.869,0.837,1.869,1.869v10.375
			C201.615,438.685,200.778,439.522,199.746,439.522z"/>
		<path style="fill:#B2BFBB;" d="M78.966,460.283H62.914c-1.369,0-2.489-1.12-2.489-2.489l0,0c0-1.369,1.12-2.489,2.489-2.489
			h16.051c1.369,0,2.489,1.12,2.489,2.489l0,0C81.455,459.163,80.335,460.283,78.966,460.283z"/>
		<path style="fill:#B2BFBB;" d="M194.897,460.283h-16.051c-1.369,0-2.489-1.12-2.489-2.489l0,0c0-1.369,1.12-2.489,2.489-2.489
			h16.051c1.369,0,2.489,1.12,2.489,2.489l0,0C197.386,459.163,196.266,460.283,194.897,460.283z"/>
		<path style="fill:#98A3A0;" d="M78.966,457.794H62.914c-0.914,0-1.709-0.505-2.141-1.245c-0.215,0.368-0.348,0.79-0.348,1.245
			c0,1.369,1.12,2.489,2.489,2.489h16.051c1.369,0,2.489-1.12,2.489-2.489c0-0.455-0.132-0.877-0.348-1.245
			C80.674,457.289,79.88,457.794,78.966,457.794z"/>
		<path style="fill:#98A3A0;" d="M194.897,457.794h-16.051c-0.914,0-1.709-0.505-2.141-1.245c-0.215,0.368-0.348,0.79-0.348,1.245
			c0,1.369,1.12,2.489,2.489,2.489h16.051c1.369,0,2.489-1.12,2.489-2.489c0-0.455-0.133-0.877-0.348-1.245
			C196.606,457.289,195.811,457.794,194.897,457.794z"/>
		<g>
			<polygon style="fill:#FFC500;" points="94.013,426.246 79.127,426.246 65.38,438.684 80.266,438.684 			"/>
			<path style="fill:#FFC500;" d="M58.657,426.246c-1.006,0-1.821,0.738-1.821,1.647v9.143c0,0.623,0.387,1.159,0.951,1.439
				l13.517-12.229H58.657z"/>
			<polygon style="fill:#FFC500;" points="116.722,426.246 101.836,426.246 88.089,438.684 102.975,438.684 			"/>
			<polygon style="fill:#FFC500;" points="184.849,426.246 169.963,426.246 156.216,438.684 171.102,438.684 			"/>
			<path style="fill:#FFC500;" d="M199.715,433.342v-5.449c0-0.91-0.815-1.647-1.821-1.647h-5.222l-13.748,12.438h14.886
				L199.715,433.342z"/>
			<polygon style="fill:#FFC500;" points="139.431,426.246 124.545,426.246 110.798,438.684 125.684,438.684 			"/>
			<polygon style="fill:#FFC500;" points="162.141,426.246 147.254,426.246 133.507,438.684 148.393,438.684 			"/>
		</g>
		<g>
			<polygon style="fill:#E6B100;" points="136.362,406.542 121.476,406.542 107.728,418.064 122.614,418.064 			"/>
			<polygon style="fill:#E6B100;" points="113.653,406.542 98.767,406.542 85.019,418.064 99.905,418.064 			"/>
			<polygon style="fill:#E6B100;" points="90.944,406.542 76.058,406.542 62.31,418.064 77.196,418.064 			"/>
			<path style="fill:#E6B100;" d="M68.235,406.542h-9.578c-1.006,0-1.821,0.683-1.821,1.526v8.027L68.235,406.542z"/>
			<polygon style="fill:#E6B100;" points="181.78,406.542 166.894,406.542 153.146,418.064 168.032,418.064 			"/>
			<path style="fill:#E6B100;" d="M199.447,417.324l-0.616,0.516C199.084,417.712,199.295,417.535,199.447,417.324z"/>
			<path style="fill:#E6B100;" d="M199.715,410.543v-2.475c0-0.843-0.815-1.526-1.821-1.526h-8.291l-13.748,11.522h14.886
				L199.715,410.543z"/>
			<polygon style="fill:#E6B100;" points="159.071,406.542 144.185,406.542 130.437,418.064 145.323,418.064 			"/>
		</g>
		<g>
			<polygon style="fill:#FFC500;" points="119.298,355.698 104.412,355.698 59.241,396.325 74.127,396.325 			"/>
			<polygon style="fill:#FFC500;" points="96.589,355.698 81.703,355.698 56.836,378.063 56.836,391.452 			"/>
			<polygon style="fill:#FFC500;" points="142.007,355.698 127.121,355.698 81.95,396.325 96.836,396.325 			"/>
			<polygon style="fill:#FFC500;" points="73.88,355.698 58.994,355.698 56.836,357.639 56.836,371.027 			"/>
			<path style="fill:#FFC500;" d="M199.715,365.069v-7.734c0-0.904-0.815-1.638-1.821-1.638h-2.646l-45.171,40.627h14.886
				L199.715,365.069z"/>
			<path style="fill:#FFC500;" d="M199.715,394.687v-2.158l-4.22,3.795h2.399C198.9,396.325,199.715,395.592,199.715,394.687z"/>
			<polygon style="fill:#FFC500;" points="164.716,355.698 149.83,355.698 104.659,396.325 119.545,396.325 			"/>
			<polygon style="fill:#FFC500;" points="199.715,385.494 199.715,372.105 172.786,396.325 187.672,396.325 			"/>
			<polygon style="fill:#FFC500;" points="187.425,355.698 172.539,355.698 127.368,396.325 142.254,396.325 			"/>
		</g>
	</g>
</g>
<g id="DESIGNED_BY_FREEPIK">
	<g id="XMLID_76_">
		<g id="XMLID_929_">
			<path id="XMLID_958_" style="fill:#B2BFBB;" d="M181.087,479.654c-0.246,0-0.435,0.085-0.567,0.255
				c-0.133,0.17-0.199,0.421-0.199,0.753v2.393c-0.304-0.332-0.617-0.579-0.937-0.739c-0.321-0.159-0.715-0.24-1.182-0.24
				c-0.807,0-1.458,0.283-1.953,0.849c-0.494,0.566-0.742,1.355-0.742,2.369c0,0.479,0.063,0.923,0.188,1.335
				c0.124,0.412,0.307,0.77,0.549,1.074c0.241,0.305,0.526,0.539,0.857,0.703c0.33,0.164,0.689,0.246,1.078,0.246
				c0.293,0,0.563-0.04,0.809-0.122c0.247-0.08,0.477-0.199,0.689-0.356c0.212-0.155,0.426-0.358,0.644-0.607v0.16
				c0,0.297,0.072,0.525,0.217,0.685c0.145,0.16,0.328,0.24,0.549,0.24c0.226,0,0.409-0.077,0.552-0.231
				c0.143-0.154,0.213-0.386,0.213-0.694v-7.147c0-0.305-0.066-0.534-0.199-0.69C181.52,479.732,181.332,479.654,181.087,479.654z
				 M180.021,486.495c-0.141,0.306-0.329,0.533-0.563,0.682c-0.236,0.148-0.496,0.223-0.781,0.223c-0.28,0-0.539-0.078-0.777-0.236
				c-0.237-0.154-0.424-0.387-0.561-0.695c-0.136-0.31-0.205-0.683-0.205-1.122c0-0.415,0.063-0.78,0.193-1.096
				c0.128-0.314,0.31-0.556,0.543-0.724c0.233-0.168,0.499-0.252,0.795-0.252c0.285,0,0.547,0.082,0.787,0.245
				c0.239,0.165,0.429,0.402,0.569,0.713c0.141,0.311,0.21,0.682,0.21,1.113C180.232,485.803,180.163,486.187,180.021,486.495z"/>
			<path id="XMLID_954_" style="fill:#B2BFBB;" d="M188.452,485.574c0.233-0.122,0.35-0.385,0.35-0.793
				c0-0.438-0.113-0.87-0.338-1.294c-0.225-0.423-0.564-0.769-1.019-1.035c-0.453-0.268-0.996-0.399-1.628-0.399
				c-0.487,0-0.93,0.077-1.33,0.233c-0.4,0.156-0.737,0.381-1.01,0.674c-0.272,0.293-0.48,0.643-0.623,1.054
				c-0.143,0.409-0.213,0.853-0.213,1.332c0,1.017,0.289,1.822,0.867,2.415c0.577,0.593,1.387,0.891,2.427,0.891
				c0.456,0,0.858-0.06,1.207-0.178c0.352-0.12,0.641-0.268,0.874-0.448c0.231-0.181,0.404-0.368,0.519-0.565
				c0.115-0.196,0.172-0.366,0.172-0.514c0-0.166-0.052-0.294-0.155-0.386c-0.103-0.09-0.237-0.137-0.403-0.137
				c-0.154,0-0.273,0.036-0.356,0.107c-0.203,0.19-0.366,0.34-0.492,0.451s-0.265,0.216-0.415,0.313
				c-0.15,0.098-0.305,0.167-0.466,0.214c-0.16,0.044-0.337,0.067-0.531,0.067c-0.289,0-0.553-0.07-0.792-0.213
				c-0.239-0.143-0.432-0.355-0.576-0.636c-0.144-0.281-0.219-0.605-0.222-0.974h3.168
				C187.89,485.754,188.219,485.694,188.452,485.574z M184.297,484.835c0.055-0.547,0.212-0.96,0.472-1.238
				c0.259-0.28,0.59-0.418,0.994-0.418c0.423,0,0.764,0.137,1.024,0.411c0.259,0.275,0.409,0.69,0.448,1.245H184.297z"/>
			<path id="XMLID_952_" style="fill:#B2BFBB;" d="M193.878,485.137c-0.319-0.17-0.729-0.316-1.231-0.439
				c-0.424-0.104-0.756-0.19-0.997-0.261c-0.242-0.07-0.434-0.161-0.576-0.27c-0.143-0.108-0.213-0.247-0.213-0.418
				c0-0.187,0.097-0.342,0.291-0.465c0.194-0.126,0.437-0.188,0.73-0.188c0.286,0,0.511,0.047,0.677,0.142
				c0.166,0.096,0.31,0.223,0.433,0.381c0.151,0.19,0.284,0.331,0.401,0.426c0.116,0.096,0.258,0.144,0.424,0.144
				c0.23,0,0.407-0.061,0.532-0.178c0.124-0.119,0.187-0.271,0.187-0.457c0-0.171-0.058-0.345-0.175-0.523
				c-0.116-0.178-0.286-0.34-0.51-0.485c-0.223-0.147-0.502-0.265-0.837-0.351c-0.333-0.088-0.71-0.131-1.13-0.131
				c-0.535,0-0.99,0.085-1.367,0.259c-0.378,0.172-0.665,0.402-0.859,0.69c-0.194,0.289-0.291,0.597-0.291,0.92
				c0,0.364,0.105,0.671,0.315,0.921c0.21,0.249,0.489,0.45,0.839,0.602c0.351,0.152,0.804,0.298,1.362,0.436
				c0.494,0.12,0.849,0.244,1.066,0.375c0.216,0.131,0.323,0.338,0.323,0.622c0,0.187-0.104,0.352-0.311,0.497
				c-0.208,0.144-0.474,0.216-0.798,0.216c-0.4,0-0.715-0.07-0.947-0.213c-0.232-0.144-0.431-0.357-0.597-0.647
				c-0.082-0.149-0.169-0.267-0.261-0.351c-0.091-0.082-0.221-0.124-0.39-0.124c-0.194,0-0.355,0.063-0.481,0.19
				c-0.128,0.126-0.191,0.278-0.191,0.456c0,0.27,0.099,0.537,0.296,0.805c0.198,0.267,0.505,0.489,0.92,0.667
				c0.415,0.179,0.914,0.268,1.495,0.268c0.609,0,1.127-0.082,1.552-0.246c0.425-0.164,0.747-0.405,0.964-0.725
				c0.218-0.318,0.326-0.701,0.326-1.149c0-0.297-0.081-0.56-0.246-0.792C194.438,485.508,194.196,485.307,193.878,485.137z"/>
			<path id="XMLID_950_" style="fill:#B2BFBB;" d="M196.486,482.063c-0.238,0-0.431,0.081-0.579,0.243
				c-0.149,0.162-0.222,0.404-0.222,0.724v4.636c0,0.316,0.073,0.56,0.222,0.73c0.148,0.17,0.341,0.255,0.579,0.255
				c0.238,0,0.433-0.083,0.588-0.249c0.154-0.166,0.232-0.412,0.232-0.736v-4.683c0-0.288-0.078-0.515-0.232-0.677
				C196.919,482.144,196.724,482.063,196.486,482.063z"/>
			<path id="XMLID_949_" style="fill:#B2BFBB;" d="M196.504,479.724c-0.217,0-0.409,0.073-0.573,0.223
				c-0.165,0.149-0.246,0.337-0.246,0.567c0,0.254,0.08,0.449,0.24,0.588c0.16,0.138,0.353,0.208,0.579,0.208
				c0.217,0,0.405-0.071,0.563-0.212c0.158-0.14,0.238-0.335,0.238-0.584c0-0.258-0.081-0.453-0.244-0.588
				C196.9,479.791,196.714,479.724,196.504,479.724z"/>
			<path id="XMLID_945_" style="fill:#B2BFBB;" d="M203.626,482.063c-0.217,0-0.396,0.077-0.535,0.231
				c-0.139,0.154-0.208,0.372-0.208,0.652v0.221c-0.289-0.376-0.602-0.651-0.938-0.829c-0.337-0.175-0.734-0.264-1.193-0.264
				c-0.384,0-0.736,0.068-1.056,0.204c-0.321,0.138-0.604,0.34-0.849,0.609c-0.245,0.268-0.433,0.599-0.566,0.991
				c-0.133,0.392-0.199,0.831-0.199,1.317c0,0.653,0.108,1.228,0.327,1.728c0.217,0.498,0.529,0.886,0.934,1.163
				c0.406,0.276,0.88,0.415,1.422,0.415c0.45,0,0.839-0.091,1.166-0.272c0.327-0.182,0.614-0.447,0.864-0.797
				c-0.008,0.531-0.02,0.916-0.036,1.155c-0.016,0.24-0.07,0.465-0.164,0.674c-0.093,0.209-0.255,0.373-0.486,0.489
				c-0.232,0.117-0.557,0.176-0.977,0.176c-0.205,0-0.387-0.02-0.545-0.057c-0.159-0.038-0.294-0.095-0.406-0.171
				c-0.112-0.078-0.216-0.171-0.309-0.28c-0.093-0.108-0.183-0.217-0.27-0.323c-0.178-0.21-0.386-0.315-0.624-0.315
				c-0.189,0-0.352,0.062-0.486,0.188c-0.135,0.123-0.202,0.284-0.202,0.482c0,0.262,0.119,0.516,0.356,0.764
				c0.238,0.247,0.576,0.448,1.014,0.605c0.439,0.155,0.938,0.233,1.496,0.233c0.609,0,1.119-0.061,1.528-0.184
				c0.409-0.122,0.741-0.311,0.994-0.564c0.253-0.254,0.438-0.574,0.551-0.961c0.115-0.389,0.173-0.852,0.173-1.39v-4.706
				c0-0.384-0.051-0.678-0.155-0.882C204.146,482.165,203.938,482.063,203.626,482.063z M202.6,486.428
				c-0.151,0.291-0.346,0.508-0.586,0.653c-0.239,0.144-0.493,0.217-0.762,0.217c-0.455,0-0.826-0.168-1.113-0.505
				c-0.287-0.336-0.431-0.834-0.431-1.49c0-0.648,0.139-1.149,0.419-1.501c0.279-0.352,0.649-0.528,1.113-0.528
				c0.475,0,0.858,0.184,1.148,0.553c0.291,0.367,0.437,0.882,0.437,1.542C202.825,485.784,202.749,486.137,202.6,486.428z"/>
			<path id="XMLID_944_" style="fill:#B2BFBB;" d="M210.978,483.13c-0.165-0.339-0.418-0.602-0.753-0.788
				c-0.337-0.187-0.718-0.279-1.146-0.279c-0.439,0-0.828,0.088-1.166,0.264c-0.338,0.177-0.65,0.452-0.935,0.828v-0.195
				c0-0.193-0.034-0.358-0.104-0.493c-0.069-0.134-0.162-0.234-0.276-0.302c-0.114-0.068-0.244-0.102-0.387-0.102
				c-0.233,0-0.416,0.076-0.552,0.229c-0.134,0.152-0.201,0.383-0.201,0.691v4.683c0,0.316,0.076,0.56,0.226,0.73
				c0.15,0.17,0.342,0.255,0.576,0.255c0.241,0,0.438-0.082,0.59-0.246c0.152-0.164,0.228-0.411,0.228-0.739v-2.03
				c0-0.66,0.04-1.11,0.119-1.353c0.11-0.3,0.284-0.537,0.522-0.71c0.237-0.172,0.5-0.258,0.788-0.258
				c0.444,0,0.74,0.143,0.888,0.425c0.148,0.282,0.223,0.691,0.223,1.226v2.7c0,0.316,0.074,0.56,0.226,0.73
				c0.15,0.17,0.346,0.255,0.587,0.255c0.238,0,0.431-0.083,0.578-0.249c0.149-0.166,0.224-0.412,0.224-0.736v-3.016
				c0-0.357-0.017-0.648-0.048-0.878C211.155,483.543,211.085,483.328,210.978,483.13z"/>
			<path id="XMLID_939_" style="fill:#B2BFBB;" d="M217.821,485.574c0.233-0.122,0.35-0.385,0.35-0.793
				c0-0.438-0.113-0.87-0.338-1.294c-0.226-0.423-0.565-0.769-1.019-1.035c-0.453-0.268-0.996-0.399-1.628-0.399
				c-0.487,0-0.93,0.077-1.33,0.233c-0.4,0.156-0.736,0.381-1.009,0.674c-0.273,0.293-0.481,0.643-0.624,1.054
				c-0.142,0.409-0.213,0.853-0.213,1.332c0,1.017,0.289,1.822,0.866,2.415c0.578,0.593,1.387,0.891,2.428,0.891
				c0.455,0,0.858-0.06,1.208-0.178c0.351-0.12,0.64-0.268,0.872-0.448c0.232-0.181,0.405-0.368,0.52-0.565
				c0.114-0.196,0.172-0.366,0.172-0.514c0-0.166-0.051-0.294-0.154-0.386c-0.103-0.09-0.238-0.137-0.404-0.137
				c-0.154,0-0.273,0.036-0.356,0.107c-0.201,0.19-0.366,0.34-0.492,0.451c-0.128,0.111-0.266,0.216-0.415,0.313
				c-0.151,0.098-0.307,0.167-0.466,0.214c-0.161,0.044-0.338,0.067-0.532,0.067c-0.288,0-0.553-0.07-0.792-0.213
				c-0.239-0.143-0.431-0.355-0.575-0.636c-0.145-0.281-0.219-0.605-0.223-0.974h3.169
				C217.26,485.754,217.588,485.694,217.821,485.574z M213.666,484.835c0.056-0.547,0.212-0.96,0.471-1.238
				c0.259-0.28,0.591-0.418,0.995-0.418c0.423,0,0.765,0.137,1.024,0.411c0.259,0.275,0.409,0.69,0.448,1.245H213.666z"/>
			<path id="XMLID_936_" style="fill:#B2BFBB;" d="M224.206,479.654c-0.245,0-0.434,0.085-0.567,0.255
				c-0.132,0.17-0.199,0.421-0.199,0.753v2.393c-0.304-0.332-0.617-0.579-0.938-0.739c-0.32-0.159-0.714-0.24-1.181-0.24
				c-0.808,0-1.458,0.283-1.953,0.849c-0.495,0.566-0.741,1.355-0.741,2.369c0,0.479,0.062,0.923,0.187,1.335
				c0.125,0.412,0.308,0.77,0.549,1.074c0.241,0.305,0.527,0.539,0.857,0.703c0.33,0.164,0.689,0.246,1.077,0.246
				c0.293,0,0.563-0.04,0.81-0.122c0.248-0.08,0.476-0.199,0.689-0.356c0.211-0.155,0.426-0.358,0.643-0.607v0.16
				c0,0.297,0.072,0.525,0.217,0.685c0.145,0.16,0.328,0.24,0.549,0.24c0.226,0,0.41-0.077,0.552-0.231
				c0.143-0.154,0.213-0.386,0.213-0.694v-7.147c0-0.305-0.065-0.534-0.199-0.69C224.641,479.732,224.452,479.654,224.206,479.654z
				 M223.141,486.495c-0.14,0.306-0.328,0.533-0.564,0.682c-0.235,0.148-0.495,0.223-0.781,0.223c-0.281,0-0.54-0.078-0.776-0.236
				c-0.238-0.154-0.425-0.387-0.562-0.695c-0.137-0.31-0.205-0.683-0.205-1.122c0-0.415,0.064-0.78,0.193-1.096
				c0.129-0.314,0.31-0.556,0.543-0.724c0.233-0.168,0.499-0.252,0.795-0.252c0.285,0,0.547,0.082,0.787,0.245
				c0.239,0.165,0.43,0.402,0.57,0.713c0.14,0.311,0.21,0.682,0.21,1.113C223.352,485.803,223.281,486.187,223.141,486.495z"/>
			<path id="XMLID_933_" style="fill:#B2BFBB;" d="M233.586,482.457c-0.406-0.255-0.877-0.383-1.415-0.383
				c-0.467,0-0.859,0.084-1.175,0.252c-0.317,0.168-0.627,0.411-0.932,0.728v-2.476c0-0.297-0.068-0.524-0.202-0.686
				c-0.135-0.159-0.326-0.239-0.576-0.239c-0.237,0-0.423,0.084-0.555,0.252c-0.133,0.168-0.198,0.416-0.198,0.744v7.075
				c0,0.305,0.068,0.535,0.205,0.692c0.136,0.156,0.319,0.233,0.549,0.233c0.226,0,0.412-0.077,0.558-0.233
				c0.146-0.157,0.22-0.388,0.22-0.692v-0.16c0.178,0.205,0.322,0.36,0.43,0.463c0.109,0.103,0.241,0.203,0.395,0.3
				c0.154,0.098,0.341,0.175,0.561,0.234c0.22,0.06,0.454,0.089,0.704,0.089c0.407,0,0.781-0.082,1.119-0.246
				c0.338-0.164,0.626-0.397,0.864-0.698c0.237-0.3,0.418-0.655,0.543-1.064c0.124-0.41,0.187-0.859,0.187-1.35
				c0-0.665-0.112-1.241-0.336-1.725C234.305,483.083,233.991,482.713,233.586,482.457z M232.796,486.868
				c-0.295,0.354-0.646,0.531-1.053,0.531c-0.479,0-0.866-0.174-1.161-0.521c-0.295-0.346-0.442-0.841-0.442-1.486
				c0-0.439,0.069-0.818,0.207-1.136c0.138-0.319,0.328-0.563,0.57-0.73c0.24-0.168,0.516-0.252,0.825-0.252
				c0.3,0,0.563,0.084,0.789,0.252c0.225,0.168,0.399,0.406,0.521,0.716c0.123,0.308,0.184,0.677,0.184,1.103
				C233.238,486.006,233.09,486.513,232.796,486.868z"/>
			<path id="XMLID_931_" style="fill:#B2BFBB;" d="M240.529,482.16c-0.112-0.065-0.23-0.098-0.353-0.098
				c-0.171,0-0.302,0.029-0.395,0.09c-0.093,0.058-0.181,0.173-0.264,0.344c-0.083,0.17-0.176,0.406-0.279,0.705l-1.3,3.71
				l-1.371-3.988c-0.091-0.277-0.195-0.489-0.314-0.638c-0.119-0.148-0.295-0.223-0.529-0.223c-0.135,0-0.264,0.035-0.389,0.107
				c-0.124,0.07-0.222,0.166-0.294,0.285c-0.071,0.117-0.107,0.246-0.107,0.385c0,0.131,0.062,0.341,0.184,0.629l1.995,5.022
				l-0.148,0.362c-0.111,0.265-0.208,0.466-0.294,0.601c-0.085,0.139-0.181,0.234-0.288,0.289c-0.107,0.056-0.254,0.084-0.44,0.084
				c-0.075,0-0.163-0.013-0.266-0.036c-0.083-0.024-0.168-0.036-0.256-0.036c-0.221,0-0.388,0.051-0.501,0.151
				c-0.113,0.101-0.169,0.245-0.169,0.431c0,0.272,0.119,0.461,0.356,0.564c0.237,0.103,0.593,0.153,1.068,0.153
				c0.487,0,0.873-0.073,1.161-0.223c0.287-0.147,0.517-0.361,0.691-0.638c0.174-0.277,0.353-0.659,0.535-1.146l2.113-5.531
				c0.051-0.143,0.095-0.283,0.13-0.421c0.037-0.14,0.061-0.246,0.078-0.321c0-0.123-0.032-0.239-0.093-0.35
				C240.729,482.314,240.642,482.226,240.529,482.16z"/>
		</g>
		<g id="XMLID_365_">
			<g id="XMLID_380_">
				<path id="XMLID_928_" style="fill:#B2BFBB;" d="M262.93,479.649c-0.533,0-0.954,0.068-1.26,0.204
					c-0.308,0.137-0.527,0.354-0.654,0.652c-0.13,0.301-0.191,0.702-0.191,1.211v0.487h-0.387c-0.543,0-0.815,0.191-0.815,0.582
					c0,0.174,0.065,0.316,0.196,0.423c0.132,0.111,0.316,0.164,0.559,0.164h0.446v4.294c0,0.318,0.074,0.563,0.228,0.729
					c0.154,0.17,0.344,0.254,0.573,0.254c0.243,0,0.438-0.084,0.589-0.254c0.155-0.167,0.23-0.411,0.23-0.729v-4.294h0.396
					c0.291,0,0.517-0.035,0.681-0.107c0.166-0.071,0.245-0.24,0.245-0.503c0-0.373-0.307-0.559-0.926-0.559h-0.396v-0.387
					c0-0.321,0.043-0.567,0.122-0.739c0.087-0.172,0.273-0.26,0.565-0.26c0.108,0,0.241,0.014,0.39,0.034
					c0.155,0.026,0.268,0.038,0.33,0.038c0.134,0,0.252-0.055,0.348-0.16c0.102-0.107,0.15-0.235,0.15-0.385
					C264.35,479.878,263.879,479.649,262.93,479.649z"/>
				<path id="XMLID_926_" style="fill:#B2BFBB;" d="M268.089,482.315c-0.32-0.171-0.648-0.255-0.99-0.255
					c-0.342,0-0.61,0.084-0.818,0.255c-0.202,0.171-0.4,0.421-0.592,0.755c-0.015-0.334-0.08-0.584-0.199-0.755
					c-0.119-0.171-0.313-0.255-0.583-0.255c-0.525,0-0.788,0.364-0.788,1.093v4.514c0,0.323,0.078,0.568,0.226,0.732
					c0.149,0.169,0.34,0.251,0.579,0.251c0.236,0,0.432-0.081,0.586-0.247c0.15-0.163,0.233-0.41,0.233-0.736v-1.355
					c0-0.486,0.014-0.899,0.045-1.238c0.033-0.337,0.09-0.631,0.17-0.878c0.084-0.243,0.201-0.425,0.353-0.554
					c0.149-0.122,0.345-0.186,0.582-0.186c0.172,0,0.374,0.036,0.602,0.107c0.227,0.073,0.371,0.112,0.434,0.112
					c0.157,0,0.304-0.064,0.44-0.194c0.135-0.126,0.204-0.292,0.204-0.488C268.571,482.712,268.411,482.486,268.089,482.315z"/>
				<path id="XMLID_922_" style="fill:#B2BFBB;" d="M274.176,485.572c0.233-0.122,0.351-0.385,0.351-0.791
					c0-0.44-0.112-0.87-0.339-1.296c-0.222-0.423-0.565-0.77-1.018-1.033c-0.453-0.27-0.997-0.403-1.629-0.403
					c-0.488,0-0.931,0.078-1.329,0.232c-0.402,0.157-0.735,0.381-1.008,0.675c-0.275,0.295-0.484,0.644-0.624,1.055
					c-0.145,0.41-0.218,0.854-0.218,1.333c0,1.017,0.293,1.823,0.87,2.418c0.576,0.593,1.385,0.889,2.429,0.889
					c0.453,0,0.857-0.061,1.207-0.179c0.349-0.117,0.64-0.269,0.874-0.446c0.232-0.182,0.404-0.368,0.522-0.566
					c0.111-0.194,0.167-0.365,0.167-0.512c0-0.167-0.048-0.294-0.152-0.386c-0.104-0.093-0.237-0.139-0.405-0.139
					c-0.152,0-0.271,0.038-0.355,0.108c-0.202,0.189-0.367,0.34-0.493,0.449c-0.128,0.113-0.264,0.218-0.415,0.313
					c-0.15,0.097-0.307,0.17-0.466,0.213c-0.16,0.048-0.336,0.069-0.531,0.069c-0.29,0-0.552-0.07-0.792-0.212
					c-0.24-0.145-0.431-0.357-0.578-0.636c-0.145-0.28-0.216-0.606-0.222-0.974h3.171
					C273.615,485.753,273.942,485.693,274.176,485.572z M270.02,484.832c0.055-0.546,0.213-0.957,0.472-1.236
					c0.26-0.28,0.592-0.418,0.995-0.418c0.426,0,0.764,0.136,1.024,0.412c0.261,0.273,0.407,0.688,0.446,1.242H270.02z"/>
				<path id="XMLID_919_" style="fill:#B2BFBB;" d="M280.916,485.572c0.232-0.122,0.352-0.385,0.352-0.791
					c0-0.44-0.116-0.87-0.341-1.296c-0.222-0.423-0.564-0.77-1.013-1.033c-0.46-0.27-1.003-0.403-1.634-0.403
					c-0.486,0-0.932,0.078-1.33,0.232c-0.4,0.157-0.736,0.381-1.009,0.675c-0.273,0.295-0.48,0.644-0.622,1.055
					c-0.145,0.41-0.218,0.854-0.218,1.333c0,1.017,0.291,1.823,0.868,2.418c0.58,0.593,1.387,0.889,2.43,0.889
					c0.453,0,0.859-0.061,1.208-0.179c0.348-0.117,0.641-0.269,0.872-0.446c0.234-0.182,0.408-0.368,0.518-0.566
					c0.116-0.194,0.171-0.365,0.171-0.512c0-0.167-0.047-0.294-0.15-0.386c-0.104-0.093-0.238-0.139-0.406-0.139
					c-0.151,0-0.27,0.038-0.355,0.108c-0.202,0.189-0.367,0.34-0.492,0.449c-0.127,0.113-0.264,0.218-0.415,0.313
					c-0.152,0.097-0.307,0.17-0.469,0.213c-0.157,0.048-0.335,0.069-0.527,0.069c-0.291,0-0.556-0.07-0.795-0.212
					c-0.238-0.145-0.431-0.357-0.575-0.636c-0.144-0.28-0.218-0.606-0.222-0.974h3.17
					C280.354,485.753,280.682,485.693,280.916,485.572z M276.762,484.832c0.053-0.546,0.211-0.957,0.47-1.236
					c0.261-0.28,0.592-0.418,0.995-0.418c0.425,0,0.764,0.136,1.026,0.412c0.257,0.273,0.407,0.688,0.446,1.242H276.762z"/>
				<path id="XMLID_390_" style="fill:#B2BFBB;" d="M286.927,482.457c-0.42-0.257-0.883-0.387-1.379-0.387
					c-0.415,0-0.79,0.09-1.114,0.268c-0.331,0.176-0.648,0.452-0.952,0.827v-0.194c0-0.297-0.071-0.52-0.218-0.678
					c-0.144-0.155-0.329-0.233-0.56-0.233c-0.233,0-0.419,0.078-0.554,0.228c-0.133,0.154-0.199,0.382-0.199,0.691v6.995
					c0,0.354,0.051,0.62,0.145,0.807c0.102,0.183,0.301,0.275,0.607,0.275c0.517,0,0.777-0.358,0.777-1.068v-2.434
					c0.286,0.358,0.586,0.635,0.9,0.817c0.314,0.186,0.704,0.279,1.166,0.279c0.385,0,0.741-0.076,1.079-0.228
					c0.334-0.152,0.622-0.372,0.868-0.653c0.245-0.283,0.44-0.632,0.58-1.05c0.14-0.418,0.21-0.878,0.21-1.376
					c0-0.677-0.122-1.261-0.366-1.758C287.676,483.091,287.346,482.715,286.927,482.457z M286.45,486.46
					c-0.137,0.313-0.32,0.546-0.552,0.704c-0.229,0.153-0.48,0.233-0.748,0.233c-0.454,0-0.828-0.179-1.133-0.536
					c-0.307-0.358-0.46-0.862-0.46-1.504c0-0.687,0.155-1.204,0.462-1.558c0.307-0.35,0.685-0.527,1.131-0.527
					c0.281,0,0.54,0.083,0.77,0.247c0.229,0.163,0.411,0.398,0.542,0.705c0.13,0.306,0.196,0.674,0.196,1.101
					C286.658,485.768,286.589,486.147,286.45,486.46z"/>
				<path id="XMLID_389_" style="fill:#B2BFBB;" d="M289.9,482.06c-0.238,0-0.428,0.079-0.58,0.244
					c-0.146,0.163-0.222,0.403-0.222,0.722v4.642c0,0.313,0.076,0.555,0.222,0.729c0.152,0.17,0.342,0.254,0.58,0.254
					s0.432-0.082,0.588-0.251c0.154-0.164,0.231-0.409,0.231-0.731v-4.688c0-0.286-0.077-0.512-0.231-0.675
					C290.332,482.139,290.139,482.06,289.9,482.06z"/>
				<path id="XMLID_388_" style="fill:#B2BFBB;" d="M289.917,479.719c-0.217,0-0.407,0.076-0.571,0.223
					c-0.166,0.149-0.247,0.339-0.247,0.568c0,0.253,0.08,0.447,0.242,0.586c0.158,0.138,0.35,0.209,0.576,0.209
					c0.22,0,0.408-0.071,0.566-0.21c0.157-0.14,0.236-0.335,0.236-0.585c0-0.257-0.082-0.454-0.244-0.591
					C290.314,479.786,290.13,479.719,289.917,479.719z"/>
				<path id="XMLID_387_" style="fill:#B2BFBB;" d="M297.258,487.089l-1.662-2.614l0.861-0.788c0.438-0.395,0.658-0.714,0.658-0.951
					c0-0.192-0.068-0.354-0.2-0.483c-0.138-0.128-0.306-0.192-0.509-0.192c-0.169,0-0.313,0.043-0.432,0.13
					c-0.121,0.086-0.29,0.251-0.517,0.486l-1.822,1.913v-3.933c0-0.329-0.074-0.581-0.221-0.751
					c-0.147-0.171-0.344-0.257-0.593-0.257c-0.256,0-0.457,0.093-0.596,0.283c-0.136,0.189-0.207,0.462-0.207,0.82v6.914
					c0,0.323,0.073,0.568,0.215,0.732c0.141,0.169,0.339,0.251,0.588,0.251c0.213,0,0.405-0.084,0.566-0.254
					c0.164-0.167,0.247-0.406,0.247-0.719v-1.29l0.88-0.83l1.428,2.352c0.182,0.278,0.329,0.472,0.435,0.58
					c0.107,0.109,0.261,0.16,0.459,0.16c0.226,0,0.412-0.073,0.553-0.222c0.142-0.15,0.214-0.351,0.214-0.609
					c0-0.089-0.029-0.189-0.082-0.288C297.47,487.429,297.379,487.284,297.258,487.089z"/>
				<path id="XMLID_386_" style="fill:#B2BFBB;" d="M299.45,486.863c-0.251,0-0.459,0.087-0.63,0.262
					c-0.171,0.173-0.257,0.381-0.257,0.622c0,0.287,0.091,0.51,0.269,0.665c0.179,0.159,0.389,0.238,0.633,0.238
					c0.237,0,0.444-0.079,0.624-0.241c0.175-0.157,0.264-0.38,0.264-0.662c0-0.243-0.089-0.454-0.264-0.626
					C299.909,486.95,299.698,486.863,299.45,486.863z"/>
				<path id="XMLID_385_" style="fill:#B2BFBB;" d="M306.835,485.936c-0.166,0-0.308,0.055-0.422,0.156
					c-0.113,0.104-0.219,0.245-0.318,0.427c-0.177,0.31-0.381,0.538-0.616,0.69c-0.23,0.149-0.509,0.225-0.834,0.225
					c-0.24,0-0.463-0.045-0.666-0.141c-0.201-0.094-0.372-0.229-0.516-0.409c-0.144-0.18-0.252-0.398-0.325-0.652
					c-0.075-0.256-0.114-0.537-0.114-0.842c0-0.646,0.147-1.161,0.44-1.533c0.293-0.375,0.682-0.561,1.158-0.561
					c0.333,0,0.606,0.075,0.82,0.227c0.219,0.147,0.425,0.376,0.623,0.674c0.108,0.158,0.209,0.27,0.299,0.339
					c0.09,0.069,0.201,0.104,0.338,0.104c0.202,0,0.377-0.068,0.524-0.203c0.143-0.135,0.214-0.3,0.214-0.491
					c0-0.192-0.062-0.397-0.192-0.617c-0.127-0.218-0.315-0.424-0.556-0.62c-0.245-0.192-0.54-0.352-0.891-0.474
					c-0.353-0.124-0.736-0.185-1.156-0.185c-0.674,0-1.26,0.139-1.747,0.419c-0.485,0.278-0.858,0.673-1.113,1.183
					c-0.259,0.511-0.387,1.098-0.387,1.765c0,0.982,0.281,1.765,0.841,2.35c0.563,0.582,1.345,0.876,2.349,0.876
					c0.469,0,0.894-0.065,1.269-0.191c0.377-0.126,0.688-0.295,0.935-0.503c0.248-0.207,0.434-0.425,0.553-0.655
					c0.122-0.229,0.183-0.446,0.183-0.647c0-0.169-0.066-0.331-0.198-0.481C307.198,486.013,307.033,485.936,306.835,485.936z"/>
				<path id="XMLID_382_" style="fill:#B2BFBB;" d="M313.646,482.973c-0.288-0.291-0.628-0.518-1.026-0.675
					c-0.4-0.16-0.847-0.238-1.336-0.238c-0.482,0-0.924,0.078-1.326,0.233c-0.398,0.158-0.737,0.38-1.02,0.669
					c-0.281,0.288-0.498,0.637-0.648,1.045c-0.146,0.408-0.225,0.857-0.225,1.349c0,0.485,0.076,0.93,0.22,1.332
					c0.151,0.401,0.369,0.75,0.657,1.048c0.284,0.292,0.626,0.521,1.016,0.676c0.393,0.159,0.835,0.239,1.326,0.239
					c0.492,0,0.937-0.08,1.336-0.234c0.394-0.157,0.735-0.382,1.02-0.675c0.286-0.291,0.502-0.642,0.656-1.05
					c0.145-0.408,0.222-0.854,0.222-1.336c0-0.488-0.075-0.932-0.221-1.339C314.148,483.616,313.933,483.269,313.646,482.973z
					 M312.455,486.888c-0.29,0.373-0.682,0.558-1.171,0.558c-0.324,0-0.604-0.086-0.846-0.253c-0.24-0.168-0.424-0.409-0.554-0.729
					c-0.129-0.316-0.193-0.685-0.193-1.108c0-0.428,0.066-0.803,0.197-1.124c0.13-0.321,0.314-0.564,0.556-0.728
					c0.242-0.163,0.522-0.245,0.84-0.245c0.489,0,0.881,0.182,1.171,0.555c0.289,0.367,0.436,0.881,0.436,1.542
					C312.891,486.006,312.744,486.519,312.455,486.888z"/>
				<path id="XMLID_381_" style="fill:#B2BFBB;" d="M323.569,482.333c-0.32-0.173-0.705-0.263-1.146-0.263
					c-0.38,0-0.726,0.081-1.038,0.241c-0.314,0.161-0.607,0.408-0.882,0.738c-0.191-0.326-0.431-0.572-0.725-0.735
					c-0.292-0.162-0.642-0.244-1.048-0.244c-0.395,0-0.748,0.079-1.07,0.241c-0.319,0.156-0.62,0.403-0.903,0.738v-0.153
					c0-0.261-0.073-0.466-0.221-0.616c-0.15-0.145-0.335-0.221-0.558-0.221c-0.226,0-0.412,0.078-0.556,0.238
					c-0.14,0.157-0.21,0.389-0.21,0.694v4.636c0,0.337,0.078,0.592,0.235,0.765c0.156,0.171,0.358,0.258,0.604,0.258
					c0.248,0,0.447-0.087,0.603-0.258c0.149-0.173,0.227-0.428,0.227-0.765v-2.189c0-0.683,0.086-1.206,0.253-1.566
					c0.169-0.369,0.517-0.55,1.048-0.55c0.264,0,0.459,0.071,0.582,0.22c0.121,0.142,0.197,0.33,0.226,0.552
					c0.027,0.226,0.04,0.544,0.04,0.952v2.581c0,0.342,0.078,0.594,0.232,0.768c0.148,0.17,0.35,0.255,0.595,0.255
					c0.254,0,0.454-0.085,0.61-0.255c0.156-0.174,0.23-0.426,0.23-0.768v-2.153c0-0.694,0.063-1.178,0.178-1.452
					c0.109-0.209,0.259-0.383,0.451-0.508c0.191-0.125,0.395-0.191,0.608-0.191c0.264,0,0.463,0.071,0.596,0.215
					c0.128,0.142,0.209,0.318,0.238,0.528c0.029,0.21,0.044,0.486,0.044,0.837v2.725c0,0.337,0.078,0.592,0.234,0.765
					c0.157,0.171,0.356,0.258,0.604,0.258c0.252,0,0.458-0.085,0.611-0.255c0.154-0.174,0.229-0.426,0.229-0.768v-3.163
					c0-0.629-0.068-1.091-0.206-1.386C324.128,482.757,323.889,482.507,323.569,482.333z"/>
			</g>
			<g id="XMLID_366_">
				<path id="XMLID_379_" style="fill:#B2BFBB;" d="M245.273,484.963c-0.001-0.003-0.001-0.006-0.001-0.011
					C245.272,484.957,245.272,484.96,245.273,484.963z"/>
				<path id="XMLID_378_" style="fill:#B2BFBB;" d="M245.355,485.481c0.001,0,0.001,0,0.001,0c-0.03-0.146-0.055-0.294-0.073-0.438
					C245.301,485.189,245.326,485.336,245.355,485.481z"/>
				<path id="XMLID_377_" style="fill:#B2BFBB;" d="M245.891,486.986c-0.003-0.007-0.006-0.014-0.01-0.021
					C245.885,486.972,245.888,486.979,245.891,486.986z"/>
				<path id="XMLID_376_" style="fill:#B2BFBB;" d="M245.84,486.885c-0.014-0.027-0.027-0.056-0.04-0.083
					C245.812,486.831,245.826,486.858,245.84,486.885z"/>
				<path id="XMLID_375_" style="fill:#B2BFBB;" d="M245.505,486.061c0.08,0.25,0.175,0.492,0.286,0.724
					c-0.113-0.236-0.206-0.478-0.284-0.724H245.505z"/>
				<path id="XMLID_374_" style="fill:#B2BFBB;" d="M250.736,478.202l-0.076-0.26c0.299-0.063,0.523-0.329,0.523-0.647
					c0-0.363-0.296-0.659-0.66-0.659c-0.365,0-0.66,0.296-0.66,0.659c0,0.317,0.225,0.584,0.522,0.647l0.084,0.289
					c-1.021,0.141-1.834,0.539-1.834,0.539l0.144,0.44c0.617-0.206,1.153-0.331,1.64-0.383c0.476-0.051,0.833-0.073,1.126-0.073
					c0.313,0,0.545,0.025,0.81,0.069l0.075-0.476C252.43,478.348,251.697,478.122,250.736,478.202z"/>
				<path id="XMLID_373_" style="fill:#B2BFBB;" d="M245.453,480.708c-0.017,0.023-0.497,0.465-0.876,1.279
					c-0.016-0.025-0.035-0.051-0.056-0.074c-0.114-0.124-0.272-0.188-0.474-0.184c-0.003,0-0.006,0-0.01,0
					c-0.124,0-0.21-0.042-0.266-0.093c0.056-0.07,0.089-0.16,0.089-0.258c0-0.23-0.188-0.419-0.419-0.419
					c-0.23,0-0.417,0.189-0.417,0.419c0,0.231,0.188,0.417,0.417,0.417c0.037,0,0.071-0.005,0.105-0.012
					c0.102,0.113,0.266,0.214,0.504,0.209c0.124-0.002,0.214,0.03,0.273,0.097c0.07,0.075,0.093,0.185,0.1,0.267
					c-0.001,0.002-0.001,0.004-0.002,0.004c-0.272,0.743-0.194,1.668-0.194,1.668l0.661,0.025c0.014-0.336,0.061-0.925,0.232-1.393
					c0.329-0.906,0.741-1.472,0.757-1.496l0.004-0.005c0.024-0.031,0.047-0.06,0.071-0.089l-0.196-0.142L245.453,480.708z"/>
				<path id="XMLID_372_" style="fill:#B2BFBB;" d="M257.294,479.307c-0.23,0-0.419,0.186-0.419,0.417
					c0,0.037,0.006,0.071,0.016,0.104c-0.115,0.104-0.215,0.267-0.211,0.506c0.002,0.123-0.03,0.213-0.097,0.273
					c-0.053,0.047-0.119,0.071-0.185,0.087c-0.492-0.689-1.098-1.109-1.098-1.109l-0.474,0.509c0.358,0.326,0.725,0.734,1.08,1.244
					c0.246,0.352,0.499,0.806,0.71,1.258l0.64-0.304c0,0-0.292-0.722-0.703-1.369c0.071-0.025,0.143-0.063,0.206-0.12
					c0.126-0.113,0.188-0.272,0.184-0.474c-0.001-0.13,0.041-0.218,0.093-0.275c0.071,0.054,0.16,0.089,0.258,0.089
					c0.232,0,0.418-0.188,0.418-0.419C257.712,479.493,257.525,479.307,257.294,479.307z"/>
				<path id="XMLID_371_" style="fill:#B2BFBB;" d="M255.633,485.057c-0.88,0.429-2.33,0.996-4.236,1.262
					c-0.749,0.104-1.475,0.143-2.143,0.143c-0.869,0-1.638-0.064-2.227-0.14c-0.672-0.084-1.198-0.188-1.52-0.261
					c0.078,0.245,0.171,0.487,0.284,0.724c0.002,0.006,0.005,0.013,0.008,0.018c0.013,0.027,0.027,0.056,0.04,0.083
					c0.014,0.027,0.027,0.055,0.041,0.079c0.004,0.008,0.007,0.015,0.01,0.021c0.19,0.357,0.417,0.684,0.676,0.968
					c0.899,0.984,1.816,1.139,1.825,1.141l0.015,0.002l0.013,0.005c0.009,0.003,0.821,0.265,2.057,0.265
					c1.215,0,2.409-0.244,3.545-0.729c0.842-0.431,1.639-1.085,2.033-1.668c0.306-0.452,0.526-0.934,0.656-1.434
					c0.069-0.266,0.124-0.692,0.092-1.141C256.555,484.562,256.163,484.799,255.633,485.057z"/>
				<path id="XMLID_367_" style="fill:#B2BFBB;" d="M252.322,479.175c-0.265-0.044-0.477-0.068-0.777-0.068
					c-0.279,0-0.626,0.022-1.088,0.07c-0.465,0.049-0.982,0.171-1.583,0.373c-0.842,0.282-1.604,0.725-2.204,1.28l-0.02,0.019
					c-0.089,0.081-0.275,0.254-0.488,0.525c-0.025,0.037-0.408,0.578-0.709,1.408c-0.226,0.621-0.216,1.526-0.216,1.537v0.001
					c0,0.212,0.013,0.423,0.036,0.632c0,0.005,0,0.008,0.001,0.011c0.003,0.027,0.007,0.053,0.01,0.08
					c0.019,0.144,0.043,0.291,0.074,0.438c0.438,0.112,3.048,0.721,5.967,0.314c1.829-0.254,3.218-0.795,4.061-1.204
					c0.701-0.34,1.151-0.647,1.325-0.773c-0.173-0.643-0.651-1.65-1.089-2.278C254.367,479.748,253.016,479.289,252.322,479.175z
					 M248.679,484.434c-0.972,0-1.759-0.787-1.759-1.76c0-0.972,0.788-1.76,1.759-1.76c0.973,0,1.761,0.788,1.761,1.76
					C250.439,483.647,249.651,484.434,248.679,484.434z M253.828,483.137c-0.601,0-1.088-0.489-1.088-1.09
					c0-0.603,0.487-1.09,1.088-1.09s1.09,0.487,1.09,1.09C254.918,482.648,254.429,483.137,253.828,483.137z"/>
			</g>
		</g>
	</g>
</g>
</svg>
