<!DOCTYPE svg PUBLIC "-//W3C//DTD SVG 1.1//EN" "http://www.w3.org/Graphics/SVG/1.1/DTD/svg11.dtd">

<!-- Uploaded to: SVG Repo, www.svgrepo.com, Transformed by: SVG Repo Mixer Tools -->
<svg width="800px" height="800px" viewBox="-2.4 -2.4 28.80 28.80" xmlns="http://www.w3.org/2000/svg" fill="none" stroke="#333333" stroke-width="0.576">

<g id="SVGRepo_bgCarrier" stroke-width="0"/>

<g id="SVGRepo_tracerCarrier" stroke-linecap="round" stroke-linejoin="round" stroke="#CCCCCC" stroke-width="0.048"/>

<g id="SVGRepo_iconCarrier">

<path fill="" fill-rule="evenodd" d="M23 12c0-6.075-4.925-11-11-11S1 5.925 1 12s4.925 11 11 11 11-4.925 11-11zM10 8a1 1 0 0 0 0 2h1v5a1 1 0 1 0 2 0V9a1 1 0 0 0-1-1h-2zm6.5 0a2.5 2.5 0 0 0-2.5 2.5v3a2.5 2.5 0 0 0 5 0v-3A2.5 2.5 0 0 0 16.5 8zm-.5 2.5a.5.5 0 0 1 1 0v3a.5.5 0 0 1-1 0v-3zM8 10a1 1 0 1 0-2 0v1H5a1 1 0 1 0 0 2h1v1a1 1 0 1 0 2 0v-1h1a1 1 0 1 0 0-2H8v-1z" clip-rule="evenodd"/>

</g>

</svg>